G04 #@! TF.GenerationSoftware,KiCad,Pcbnew,5.0.0*
G04 #@! TF.CreationDate,2018-09-30T11:55:23-04:00*
G04 #@! TF.ProjectId,audio-attenuator,617564696F2D617474656E7561746F72,rev?*
G04 #@! TF.SameCoordinates,Original*
G04 #@! TF.FileFunction,Copper,L1,Top,Signal*
G04 #@! TF.FilePolarity,Positive*
%FSLAX46Y46*%
G04 Gerber Fmt 4.6, Leading zero omitted, Abs format (unit mm)*
G04 Created by KiCad (PCBNEW 5.0.0) date Sun Sep 30 11:55:23 2018*
%MOMM*%
%LPD*%
G01*
G04 APERTURE LIST*
G04 #@! TA.AperFunction,ComponentPad*
%ADD10C,2.400000*%
G04 #@! TD*
G04 #@! TA.AperFunction,ComponentPad*
%ADD11O,2.400000X2.400000*%
G04 #@! TD*
G04 #@! TA.AperFunction,ComponentPad*
%ADD12C,3.500000*%
G04 #@! TD*
G04 #@! TA.AperFunction,Conductor*
%ADD13C,1.270000*%
G04 #@! TD*
G04 #@! TA.AperFunction,Conductor*
%ADD14C,0.254000*%
G04 #@! TD*
G04 APERTURE END LIST*
D10*
G04 #@! TO.P,R6,1*
G04 #@! TO.N,/ATTEN*
X73000000Y-86400000D03*
D11*
G04 #@! TO.P,R6,2*
G04 #@! TO.N,/OUT*
X133960000Y-86400000D03*
G04 #@! TD*
G04 #@! TO.P,R5,2*
G04 #@! TO.N,/OUT*
X133960000Y-71000000D03*
D10*
G04 #@! TO.P,R5,1*
G04 #@! TO.N,/ATTEN*
X73000000Y-71000000D03*
G04 #@! TD*
G04 #@! TO.P,R4,1*
G04 #@! TO.N,/ATTEN*
X59000000Y-25000000D03*
D11*
G04 #@! TO.P,R4,2*
G04 #@! TO.N,GND*
X119960000Y-25000000D03*
G04 #@! TD*
G04 #@! TO.P,R3,2*
G04 #@! TO.N,GND*
X119360000Y-101500000D03*
D10*
G04 #@! TO.P,R3,1*
G04 #@! TO.N,/ATTEN*
X58400000Y-101500000D03*
G04 #@! TD*
G04 #@! TO.P,R2,1*
G04 #@! TO.N,/IN*
X46000000Y-57000000D03*
D11*
G04 #@! TO.P,R2,2*
G04 #@! TO.N,/ATTEN*
X106960000Y-57000000D03*
G04 #@! TD*
G04 #@! TO.P,R1,2*
G04 #@! TO.N,/ATTEN*
X106860000Y-40300000D03*
D10*
G04 #@! TO.P,R1,1*
G04 #@! TO.N,/IN*
X45900000Y-40300000D03*
G04 #@! TD*
D12*
G04 #@! TO.P,J2,T*
G04 #@! TO.N,/OUT*
X118700000Y-41150000D03*
X118700000Y-57650000D03*
G04 #@! TO.P,J2,S*
G04 #@! TO.N,GND*
X131400000Y-57650000D03*
X131400000Y-41150000D03*
G04 #@! TD*
G04 #@! TO.P,J1,S*
G04 #@! TO.N,GND*
X48700000Y-86250000D03*
X48700000Y-69750000D03*
G04 #@! TO.P,J1,T*
G04 #@! TO.N,/IN*
X61400000Y-69750000D03*
X61400000Y-86250000D03*
G04 #@! TD*
D13*
G04 #@! TO.N,/IN*
X45900000Y-56900000D02*
X46000000Y-57000000D01*
X45900000Y-40300000D02*
X45900000Y-56900000D01*
X58750000Y-69750000D02*
X61400000Y-69750000D01*
X46000000Y-57000000D02*
X58750000Y-69750000D01*
X61400000Y-69750000D02*
X61400000Y-86250000D01*
G04 #@! TO.N,/OUT*
X133960000Y-86400000D02*
X133960000Y-71000000D01*
X132050000Y-71000000D02*
X118700000Y-57650000D01*
X133960000Y-71000000D02*
X132050000Y-71000000D01*
X120449999Y-42899999D02*
X118700000Y-41150000D01*
X120449999Y-55900001D02*
X120449999Y-42899999D01*
X118700000Y-57650000D02*
X120449999Y-55900001D01*
G04 #@! TO.N,/ATTEN*
X92960000Y-71000000D02*
X106960000Y-57000000D01*
X73000000Y-71000000D02*
X92960000Y-71000000D01*
X73000000Y-71000000D02*
X73000000Y-86400000D01*
X58400000Y-101000000D02*
X58400000Y-101500000D01*
X73000000Y-86400000D02*
X58400000Y-101000000D01*
X106860000Y-56900000D02*
X106960000Y-57000000D01*
X106860000Y-40300000D02*
X106860000Y-56900000D01*
X91560000Y-25000000D02*
X106860000Y-40300000D01*
X59000000Y-25000000D02*
X91560000Y-25000000D01*
G04 #@! TD*
D14*
G04 #@! TO.N,/OUT*
G36*
X138288801Y-93873000D02*
X109127000Y-93873000D01*
X109127000Y-86811805D01*
X132171805Y-86811805D01*
X132404358Y-87373258D01*
X132895224Y-87894492D01*
X133548193Y-88188203D01*
X133833000Y-88071858D01*
X133833000Y-86527000D01*
X134087000Y-86527000D01*
X134087000Y-88071858D01*
X134371807Y-88188203D01*
X135024776Y-87894492D01*
X135515642Y-87373258D01*
X135748195Y-86811805D01*
X135631432Y-86527000D01*
X134087000Y-86527000D01*
X133833000Y-86527000D01*
X132288568Y-86527000D01*
X132171805Y-86811805D01*
X109127000Y-86811805D01*
X109127000Y-85988195D01*
X132171805Y-85988195D01*
X132288568Y-86273000D01*
X133833000Y-86273000D01*
X133833000Y-84728142D01*
X134087000Y-84728142D01*
X134087000Y-86273000D01*
X135631432Y-86273000D01*
X135748195Y-85988195D01*
X135515642Y-85426742D01*
X135024776Y-84905508D01*
X134371807Y-84611797D01*
X134087000Y-84728142D01*
X133833000Y-84728142D01*
X133548193Y-84611797D01*
X132895224Y-84905508D01*
X132404358Y-85426742D01*
X132171805Y-85988195D01*
X109127000Y-85988195D01*
X109127000Y-71411805D01*
X132171805Y-71411805D01*
X132404358Y-71973258D01*
X132895224Y-72494492D01*
X133548193Y-72788203D01*
X133833000Y-72671858D01*
X133833000Y-71127000D01*
X134087000Y-71127000D01*
X134087000Y-72671858D01*
X134371807Y-72788203D01*
X135024776Y-72494492D01*
X135515642Y-71973258D01*
X135748195Y-71411805D01*
X135631432Y-71127000D01*
X134087000Y-71127000D01*
X133833000Y-71127000D01*
X132288568Y-71127000D01*
X132171805Y-71411805D01*
X109127000Y-71411805D01*
X109127000Y-70588195D01*
X132171805Y-70588195D01*
X132288568Y-70873000D01*
X133833000Y-70873000D01*
X133833000Y-69328142D01*
X134087000Y-69328142D01*
X134087000Y-70873000D01*
X135631432Y-70873000D01*
X135748195Y-70588195D01*
X135515642Y-70026742D01*
X135024776Y-69505508D01*
X134371807Y-69211797D01*
X134087000Y-69328142D01*
X133833000Y-69328142D01*
X133548193Y-69211797D01*
X132895224Y-69505508D01*
X132404358Y-70026742D01*
X132171805Y-70588195D01*
X109127000Y-70588195D01*
X109127000Y-59344528D01*
X117185077Y-59344528D01*
X117375364Y-59689271D01*
X118256591Y-60040956D01*
X119205323Y-60028641D01*
X120024636Y-59689271D01*
X120214923Y-59344528D01*
X118700000Y-57829605D01*
X117185077Y-59344528D01*
X109127000Y-59344528D01*
X109127000Y-57206591D01*
X116309044Y-57206591D01*
X116321359Y-58155323D01*
X116660729Y-58974636D01*
X117005472Y-59164923D01*
X118520395Y-57650000D01*
X118879605Y-57650000D01*
X120394528Y-59164923D01*
X120739271Y-58974636D01*
X121090956Y-58093409D01*
X121079043Y-57175594D01*
X129015000Y-57175594D01*
X129015000Y-58124406D01*
X129378095Y-59000994D01*
X130049006Y-59671905D01*
X130925594Y-60035000D01*
X131874406Y-60035000D01*
X132750994Y-59671905D01*
X133421905Y-59000994D01*
X133785000Y-58124406D01*
X133785000Y-57175594D01*
X133421905Y-56299006D01*
X132750994Y-55628095D01*
X131874406Y-55265000D01*
X130925594Y-55265000D01*
X130049006Y-55628095D01*
X129378095Y-56299006D01*
X129015000Y-57175594D01*
X121079043Y-57175594D01*
X121078641Y-57144677D01*
X120739271Y-56325364D01*
X120394528Y-56135077D01*
X118879605Y-57650000D01*
X118520395Y-57650000D01*
X117005472Y-56135077D01*
X116660729Y-56325364D01*
X116309044Y-57206591D01*
X109127000Y-57206591D01*
X109127000Y-55955472D01*
X117185077Y-55955472D01*
X118700000Y-57470395D01*
X120214923Y-55955472D01*
X120024636Y-55610729D01*
X119143409Y-55259044D01*
X118194677Y-55271359D01*
X117375364Y-55610729D01*
X117185077Y-55955472D01*
X109127000Y-55955472D01*
X109127000Y-42844528D01*
X117185077Y-42844528D01*
X117375364Y-43189271D01*
X118256591Y-43540956D01*
X119205323Y-43528641D01*
X120024636Y-43189271D01*
X120214923Y-42844528D01*
X118700000Y-41329605D01*
X117185077Y-42844528D01*
X109127000Y-42844528D01*
X109127000Y-40706591D01*
X116309044Y-40706591D01*
X116321359Y-41655323D01*
X116660729Y-42474636D01*
X117005472Y-42664923D01*
X118520395Y-41150000D01*
X118879605Y-41150000D01*
X120394528Y-42664923D01*
X120739271Y-42474636D01*
X121090956Y-41593409D01*
X121079043Y-40675594D01*
X129015000Y-40675594D01*
X129015000Y-41624406D01*
X129378095Y-42500994D01*
X130049006Y-43171905D01*
X130925594Y-43535000D01*
X131874406Y-43535000D01*
X132750994Y-43171905D01*
X133421905Y-42500994D01*
X133785000Y-41624406D01*
X133785000Y-40675594D01*
X133421905Y-39799006D01*
X132750994Y-39128095D01*
X131874406Y-38765000D01*
X130925594Y-38765000D01*
X130049006Y-39128095D01*
X129378095Y-39799006D01*
X129015000Y-40675594D01*
X121079043Y-40675594D01*
X121078641Y-40644677D01*
X120739271Y-39825364D01*
X120394528Y-39635077D01*
X118879605Y-41150000D01*
X118520395Y-41150000D01*
X117005472Y-39635077D01*
X116660729Y-39825364D01*
X116309044Y-40706591D01*
X109127000Y-40706591D01*
X109127000Y-39455472D01*
X117185077Y-39455472D01*
X118700000Y-40970395D01*
X120214923Y-39455472D01*
X120024636Y-39110729D01*
X119143409Y-38759044D01*
X118194677Y-38771359D01*
X117375364Y-39110729D01*
X117185077Y-39455472D01*
X109127000Y-39455472D01*
X109127000Y-37127000D01*
X138288800Y-37127000D01*
X138288801Y-93873000D01*
X138288801Y-93873000D01*
G37*
X138288801Y-93873000D02*
X109127000Y-93873000D01*
X109127000Y-86811805D01*
X132171805Y-86811805D01*
X132404358Y-87373258D01*
X132895224Y-87894492D01*
X133548193Y-88188203D01*
X133833000Y-88071858D01*
X133833000Y-86527000D01*
X134087000Y-86527000D01*
X134087000Y-88071858D01*
X134371807Y-88188203D01*
X135024776Y-87894492D01*
X135515642Y-87373258D01*
X135748195Y-86811805D01*
X135631432Y-86527000D01*
X134087000Y-86527000D01*
X133833000Y-86527000D01*
X132288568Y-86527000D01*
X132171805Y-86811805D01*
X109127000Y-86811805D01*
X109127000Y-85988195D01*
X132171805Y-85988195D01*
X132288568Y-86273000D01*
X133833000Y-86273000D01*
X133833000Y-84728142D01*
X134087000Y-84728142D01*
X134087000Y-86273000D01*
X135631432Y-86273000D01*
X135748195Y-85988195D01*
X135515642Y-85426742D01*
X135024776Y-84905508D01*
X134371807Y-84611797D01*
X134087000Y-84728142D01*
X133833000Y-84728142D01*
X133548193Y-84611797D01*
X132895224Y-84905508D01*
X132404358Y-85426742D01*
X132171805Y-85988195D01*
X109127000Y-85988195D01*
X109127000Y-71411805D01*
X132171805Y-71411805D01*
X132404358Y-71973258D01*
X132895224Y-72494492D01*
X133548193Y-72788203D01*
X133833000Y-72671858D01*
X133833000Y-71127000D01*
X134087000Y-71127000D01*
X134087000Y-72671858D01*
X134371807Y-72788203D01*
X135024776Y-72494492D01*
X135515642Y-71973258D01*
X135748195Y-71411805D01*
X135631432Y-71127000D01*
X134087000Y-71127000D01*
X133833000Y-71127000D01*
X132288568Y-71127000D01*
X132171805Y-71411805D01*
X109127000Y-71411805D01*
X109127000Y-70588195D01*
X132171805Y-70588195D01*
X132288568Y-70873000D01*
X133833000Y-70873000D01*
X133833000Y-69328142D01*
X134087000Y-69328142D01*
X134087000Y-70873000D01*
X135631432Y-70873000D01*
X135748195Y-70588195D01*
X135515642Y-70026742D01*
X135024776Y-69505508D01*
X134371807Y-69211797D01*
X134087000Y-69328142D01*
X133833000Y-69328142D01*
X133548193Y-69211797D01*
X132895224Y-69505508D01*
X132404358Y-70026742D01*
X132171805Y-70588195D01*
X109127000Y-70588195D01*
X109127000Y-59344528D01*
X117185077Y-59344528D01*
X117375364Y-59689271D01*
X118256591Y-60040956D01*
X119205323Y-60028641D01*
X120024636Y-59689271D01*
X120214923Y-59344528D01*
X118700000Y-57829605D01*
X117185077Y-59344528D01*
X109127000Y-59344528D01*
X109127000Y-57206591D01*
X116309044Y-57206591D01*
X116321359Y-58155323D01*
X116660729Y-58974636D01*
X117005472Y-59164923D01*
X118520395Y-57650000D01*
X118879605Y-57650000D01*
X120394528Y-59164923D01*
X120739271Y-58974636D01*
X121090956Y-58093409D01*
X121079043Y-57175594D01*
X129015000Y-57175594D01*
X129015000Y-58124406D01*
X129378095Y-59000994D01*
X130049006Y-59671905D01*
X130925594Y-60035000D01*
X131874406Y-60035000D01*
X132750994Y-59671905D01*
X133421905Y-59000994D01*
X133785000Y-58124406D01*
X133785000Y-57175594D01*
X133421905Y-56299006D01*
X132750994Y-55628095D01*
X131874406Y-55265000D01*
X130925594Y-55265000D01*
X130049006Y-55628095D01*
X129378095Y-56299006D01*
X129015000Y-57175594D01*
X121079043Y-57175594D01*
X121078641Y-57144677D01*
X120739271Y-56325364D01*
X120394528Y-56135077D01*
X118879605Y-57650000D01*
X118520395Y-57650000D01*
X117005472Y-56135077D01*
X116660729Y-56325364D01*
X116309044Y-57206591D01*
X109127000Y-57206591D01*
X109127000Y-55955472D01*
X117185077Y-55955472D01*
X118700000Y-57470395D01*
X120214923Y-55955472D01*
X120024636Y-55610729D01*
X119143409Y-55259044D01*
X118194677Y-55271359D01*
X117375364Y-55610729D01*
X117185077Y-55955472D01*
X109127000Y-55955472D01*
X109127000Y-42844528D01*
X117185077Y-42844528D01*
X117375364Y-43189271D01*
X118256591Y-43540956D01*
X119205323Y-43528641D01*
X120024636Y-43189271D01*
X120214923Y-42844528D01*
X118700000Y-41329605D01*
X117185077Y-42844528D01*
X109127000Y-42844528D01*
X109127000Y-40706591D01*
X116309044Y-40706591D01*
X116321359Y-41655323D01*
X116660729Y-42474636D01*
X117005472Y-42664923D01*
X118520395Y-41150000D01*
X118879605Y-41150000D01*
X120394528Y-42664923D01*
X120739271Y-42474636D01*
X121090956Y-41593409D01*
X121079043Y-40675594D01*
X129015000Y-40675594D01*
X129015000Y-41624406D01*
X129378095Y-42500994D01*
X130049006Y-43171905D01*
X130925594Y-43535000D01*
X131874406Y-43535000D01*
X132750994Y-43171905D01*
X133421905Y-42500994D01*
X133785000Y-41624406D01*
X133785000Y-40675594D01*
X133421905Y-39799006D01*
X132750994Y-39128095D01*
X131874406Y-38765000D01*
X130925594Y-38765000D01*
X130049006Y-39128095D01*
X129378095Y-39799006D01*
X129015000Y-40675594D01*
X121079043Y-40675594D01*
X121078641Y-40644677D01*
X120739271Y-39825364D01*
X120394528Y-39635077D01*
X118879605Y-41150000D01*
X118520395Y-41150000D01*
X117005472Y-39635077D01*
X116660729Y-39825364D01*
X116309044Y-40706591D01*
X109127000Y-40706591D01*
X109127000Y-39455472D01*
X117185077Y-39455472D01*
X118700000Y-40970395D01*
X120214923Y-39455472D01*
X120024636Y-39110729D01*
X119143409Y-38759044D01*
X118194677Y-38771359D01*
X117375364Y-39110729D01*
X117185077Y-39455472D01*
X109127000Y-39455472D01*
X109127000Y-37127000D01*
X138288800Y-37127000D01*
X138288801Y-93873000D01*
G04 #@! TO.N,/IN*
G36*
X68873000Y-87873000D02*
X63202608Y-87873000D01*
X63094530Y-87764922D01*
X63439271Y-87574636D01*
X63790956Y-86693409D01*
X63778641Y-85744677D01*
X63439271Y-84925364D01*
X63094528Y-84735077D01*
X61579605Y-86250000D01*
X61593748Y-86264143D01*
X61414143Y-86443748D01*
X61400000Y-86429605D01*
X61385858Y-86443748D01*
X61206253Y-86264143D01*
X61220395Y-86250000D01*
X59705472Y-84735077D01*
X59360729Y-84925364D01*
X59009044Y-85806591D01*
X59021359Y-86755323D01*
X59360729Y-87574636D01*
X59705470Y-87764922D01*
X59597392Y-87873000D01*
X50449899Y-87873000D01*
X50721905Y-87600994D01*
X51085000Y-86724406D01*
X51085000Y-85775594D01*
X50721905Y-84899006D01*
X50378371Y-84555472D01*
X59885077Y-84555472D01*
X61400000Y-86070395D01*
X62914923Y-84555472D01*
X62724636Y-84210729D01*
X61843409Y-83859044D01*
X60894677Y-83871359D01*
X60075364Y-84210729D01*
X59885077Y-84555472D01*
X50378371Y-84555472D01*
X50050994Y-84228095D01*
X49174406Y-83865000D01*
X48225594Y-83865000D01*
X47349006Y-84228095D01*
X46678095Y-84899006D01*
X46315000Y-85775594D01*
X46315000Y-86724406D01*
X46678095Y-87600994D01*
X46950101Y-87873000D01*
X43711200Y-87873000D01*
X43711200Y-69275594D01*
X46315000Y-69275594D01*
X46315000Y-70224406D01*
X46678095Y-71100994D01*
X47349006Y-71771905D01*
X48225594Y-72135000D01*
X49174406Y-72135000D01*
X50050994Y-71771905D01*
X50378371Y-71444528D01*
X59885077Y-71444528D01*
X60075364Y-71789271D01*
X60956591Y-72140956D01*
X61905323Y-72128641D01*
X62724636Y-71789271D01*
X62914923Y-71444528D01*
X61400000Y-69929605D01*
X59885077Y-71444528D01*
X50378371Y-71444528D01*
X50721905Y-71100994D01*
X51085000Y-70224406D01*
X51085000Y-69306591D01*
X59009044Y-69306591D01*
X59021359Y-70255323D01*
X59360729Y-71074636D01*
X59705472Y-71264923D01*
X61220395Y-69750000D01*
X61579605Y-69750000D01*
X63094528Y-71264923D01*
X63439271Y-71074636D01*
X63790956Y-70193409D01*
X63778641Y-69244677D01*
X63439271Y-68425364D01*
X63094528Y-68235077D01*
X61579605Y-69750000D01*
X61220395Y-69750000D01*
X59705472Y-68235077D01*
X59360729Y-68425364D01*
X59009044Y-69306591D01*
X51085000Y-69306591D01*
X51085000Y-69275594D01*
X50721905Y-68399006D01*
X50378371Y-68055472D01*
X59885077Y-68055472D01*
X61400000Y-69570395D01*
X62914923Y-68055472D01*
X62724636Y-67710729D01*
X61843409Y-67359044D01*
X60894677Y-67371359D01*
X60075364Y-67710729D01*
X59885077Y-68055472D01*
X50378371Y-68055472D01*
X50050994Y-67728095D01*
X49174406Y-67365000D01*
X48225594Y-67365000D01*
X47349006Y-67728095D01*
X46678095Y-68399006D01*
X46315000Y-69275594D01*
X43711200Y-69275594D01*
X43711200Y-58297175D01*
X44882430Y-58297175D01*
X45005565Y-58584788D01*
X45687734Y-58844707D01*
X46417443Y-58823786D01*
X46994435Y-58584788D01*
X47117570Y-58297175D01*
X46000000Y-57179605D01*
X44882430Y-58297175D01*
X43711200Y-58297175D01*
X43711200Y-56687734D01*
X44155293Y-56687734D01*
X44176214Y-57417443D01*
X44415212Y-57994435D01*
X44702825Y-58117570D01*
X45820395Y-57000000D01*
X46179605Y-57000000D01*
X47297175Y-58117570D01*
X47584788Y-57994435D01*
X47844707Y-57312266D01*
X47823786Y-56582557D01*
X47584788Y-56005565D01*
X47297175Y-55882430D01*
X46179605Y-57000000D01*
X45820395Y-57000000D01*
X44702825Y-55882430D01*
X44415212Y-56005565D01*
X44155293Y-56687734D01*
X43711200Y-56687734D01*
X43711200Y-55702825D01*
X44882430Y-55702825D01*
X46000000Y-56820395D01*
X47117570Y-55702825D01*
X46994435Y-55415212D01*
X46312266Y-55155293D01*
X45582557Y-55176214D01*
X45005565Y-55415212D01*
X44882430Y-55702825D01*
X43711200Y-55702825D01*
X43711200Y-41597175D01*
X44782430Y-41597175D01*
X44905565Y-41884788D01*
X45587734Y-42144707D01*
X46317443Y-42123786D01*
X46894435Y-41884788D01*
X47017570Y-41597175D01*
X45900000Y-40479605D01*
X44782430Y-41597175D01*
X43711200Y-41597175D01*
X43711200Y-39987734D01*
X44055293Y-39987734D01*
X44076214Y-40717443D01*
X44315212Y-41294435D01*
X44602825Y-41417570D01*
X45720395Y-40300000D01*
X46079605Y-40300000D01*
X47197175Y-41417570D01*
X47484788Y-41294435D01*
X47744707Y-40612266D01*
X47723786Y-39882557D01*
X47484788Y-39305565D01*
X47197175Y-39182430D01*
X46079605Y-40300000D01*
X45720395Y-40300000D01*
X44602825Y-39182430D01*
X44315212Y-39305565D01*
X44055293Y-39987734D01*
X43711200Y-39987734D01*
X43711200Y-39002825D01*
X44782430Y-39002825D01*
X45900000Y-40120395D01*
X47017570Y-39002825D01*
X46894435Y-38715212D01*
X46212266Y-38455293D01*
X45482557Y-38476214D01*
X44905565Y-38715212D01*
X44782430Y-39002825D01*
X43711200Y-39002825D01*
X43711200Y-33127000D01*
X68873000Y-33127000D01*
X68873000Y-87873000D01*
X68873000Y-87873000D01*
G37*
X68873000Y-87873000D02*
X63202608Y-87873000D01*
X63094530Y-87764922D01*
X63439271Y-87574636D01*
X63790956Y-86693409D01*
X63778641Y-85744677D01*
X63439271Y-84925364D01*
X63094528Y-84735077D01*
X61579605Y-86250000D01*
X61593748Y-86264143D01*
X61414143Y-86443748D01*
X61400000Y-86429605D01*
X61385858Y-86443748D01*
X61206253Y-86264143D01*
X61220395Y-86250000D01*
X59705472Y-84735077D01*
X59360729Y-84925364D01*
X59009044Y-85806591D01*
X59021359Y-86755323D01*
X59360729Y-87574636D01*
X59705470Y-87764922D01*
X59597392Y-87873000D01*
X50449899Y-87873000D01*
X50721905Y-87600994D01*
X51085000Y-86724406D01*
X51085000Y-85775594D01*
X50721905Y-84899006D01*
X50378371Y-84555472D01*
X59885077Y-84555472D01*
X61400000Y-86070395D01*
X62914923Y-84555472D01*
X62724636Y-84210729D01*
X61843409Y-83859044D01*
X60894677Y-83871359D01*
X60075364Y-84210729D01*
X59885077Y-84555472D01*
X50378371Y-84555472D01*
X50050994Y-84228095D01*
X49174406Y-83865000D01*
X48225594Y-83865000D01*
X47349006Y-84228095D01*
X46678095Y-84899006D01*
X46315000Y-85775594D01*
X46315000Y-86724406D01*
X46678095Y-87600994D01*
X46950101Y-87873000D01*
X43711200Y-87873000D01*
X43711200Y-69275594D01*
X46315000Y-69275594D01*
X46315000Y-70224406D01*
X46678095Y-71100994D01*
X47349006Y-71771905D01*
X48225594Y-72135000D01*
X49174406Y-72135000D01*
X50050994Y-71771905D01*
X50378371Y-71444528D01*
X59885077Y-71444528D01*
X60075364Y-71789271D01*
X60956591Y-72140956D01*
X61905323Y-72128641D01*
X62724636Y-71789271D01*
X62914923Y-71444528D01*
X61400000Y-69929605D01*
X59885077Y-71444528D01*
X50378371Y-71444528D01*
X50721905Y-71100994D01*
X51085000Y-70224406D01*
X51085000Y-69306591D01*
X59009044Y-69306591D01*
X59021359Y-70255323D01*
X59360729Y-71074636D01*
X59705472Y-71264923D01*
X61220395Y-69750000D01*
X61579605Y-69750000D01*
X63094528Y-71264923D01*
X63439271Y-71074636D01*
X63790956Y-70193409D01*
X63778641Y-69244677D01*
X63439271Y-68425364D01*
X63094528Y-68235077D01*
X61579605Y-69750000D01*
X61220395Y-69750000D01*
X59705472Y-68235077D01*
X59360729Y-68425364D01*
X59009044Y-69306591D01*
X51085000Y-69306591D01*
X51085000Y-69275594D01*
X50721905Y-68399006D01*
X50378371Y-68055472D01*
X59885077Y-68055472D01*
X61400000Y-69570395D01*
X62914923Y-68055472D01*
X62724636Y-67710729D01*
X61843409Y-67359044D01*
X60894677Y-67371359D01*
X60075364Y-67710729D01*
X59885077Y-68055472D01*
X50378371Y-68055472D01*
X50050994Y-67728095D01*
X49174406Y-67365000D01*
X48225594Y-67365000D01*
X47349006Y-67728095D01*
X46678095Y-68399006D01*
X46315000Y-69275594D01*
X43711200Y-69275594D01*
X43711200Y-58297175D01*
X44882430Y-58297175D01*
X45005565Y-58584788D01*
X45687734Y-58844707D01*
X46417443Y-58823786D01*
X46994435Y-58584788D01*
X47117570Y-58297175D01*
X46000000Y-57179605D01*
X44882430Y-58297175D01*
X43711200Y-58297175D01*
X43711200Y-56687734D01*
X44155293Y-56687734D01*
X44176214Y-57417443D01*
X44415212Y-57994435D01*
X44702825Y-58117570D01*
X45820395Y-57000000D01*
X46179605Y-57000000D01*
X47297175Y-58117570D01*
X47584788Y-57994435D01*
X47844707Y-57312266D01*
X47823786Y-56582557D01*
X47584788Y-56005565D01*
X47297175Y-55882430D01*
X46179605Y-57000000D01*
X45820395Y-57000000D01*
X44702825Y-55882430D01*
X44415212Y-56005565D01*
X44155293Y-56687734D01*
X43711200Y-56687734D01*
X43711200Y-55702825D01*
X44882430Y-55702825D01*
X46000000Y-56820395D01*
X47117570Y-55702825D01*
X46994435Y-55415212D01*
X46312266Y-55155293D01*
X45582557Y-55176214D01*
X45005565Y-55415212D01*
X44882430Y-55702825D01*
X43711200Y-55702825D01*
X43711200Y-41597175D01*
X44782430Y-41597175D01*
X44905565Y-41884788D01*
X45587734Y-42144707D01*
X46317443Y-42123786D01*
X46894435Y-41884788D01*
X47017570Y-41597175D01*
X45900000Y-40479605D01*
X44782430Y-41597175D01*
X43711200Y-41597175D01*
X43711200Y-39987734D01*
X44055293Y-39987734D01*
X44076214Y-40717443D01*
X44315212Y-41294435D01*
X44602825Y-41417570D01*
X45720395Y-40300000D01*
X46079605Y-40300000D01*
X47197175Y-41417570D01*
X47484788Y-41294435D01*
X47744707Y-40612266D01*
X47723786Y-39882557D01*
X47484788Y-39305565D01*
X47197175Y-39182430D01*
X46079605Y-40300000D01*
X45720395Y-40300000D01*
X44602825Y-39182430D01*
X44315212Y-39305565D01*
X44055293Y-39987734D01*
X43711200Y-39987734D01*
X43711200Y-39002825D01*
X44782430Y-39002825D01*
X45900000Y-40120395D01*
X47017570Y-39002825D01*
X46894435Y-38715212D01*
X46212266Y-38455293D01*
X45482557Y-38476214D01*
X44905565Y-38715212D01*
X44782430Y-39002825D01*
X43711200Y-39002825D01*
X43711200Y-33127000D01*
X68873000Y-33127000D01*
X68873000Y-87873000D01*
G04 #@! TO.N,/ATTEN*
G36*
X138288800Y-36365000D02*
X109000000Y-36365000D01*
X108756996Y-36413336D01*
X108550987Y-36550987D01*
X108413336Y-36756996D01*
X108365000Y-37000000D01*
X108365000Y-39272967D01*
X107924776Y-38805508D01*
X107271807Y-38511797D01*
X106987000Y-38628142D01*
X106987000Y-40173000D01*
X107007000Y-40173000D01*
X107007000Y-40427000D01*
X106987000Y-40427000D01*
X106987000Y-41971858D01*
X107271807Y-42088203D01*
X107924776Y-41794492D01*
X108365000Y-41327033D01*
X108365000Y-55866780D01*
X108024776Y-55505508D01*
X107371807Y-55211797D01*
X107087000Y-55328142D01*
X107087000Y-56873000D01*
X107107000Y-56873000D01*
X107107000Y-57127000D01*
X107087000Y-57127000D01*
X107087000Y-58671858D01*
X107371807Y-58788203D01*
X108024776Y-58494492D01*
X108365000Y-58133220D01*
X108365000Y-94000000D01*
X108413336Y-94243004D01*
X108550987Y-94449013D01*
X108756996Y-94586664D01*
X109000000Y-94635000D01*
X138288801Y-94635000D01*
X138288801Y-110288800D01*
X43711200Y-110288800D01*
X43711200Y-100555431D01*
X47765000Y-100555431D01*
X47765000Y-101444569D01*
X48105259Y-102266026D01*
X48733974Y-102894741D01*
X49555431Y-103235000D01*
X50444569Y-103235000D01*
X51266026Y-102894741D01*
X51363592Y-102797175D01*
X57282430Y-102797175D01*
X57405565Y-103084788D01*
X58087734Y-103344707D01*
X58817443Y-103323786D01*
X59394435Y-103084788D01*
X59517570Y-102797175D01*
X58400000Y-101679605D01*
X57282430Y-102797175D01*
X51363592Y-102797175D01*
X51894741Y-102266026D01*
X52235000Y-101444569D01*
X52235000Y-101187734D01*
X56555293Y-101187734D01*
X56576214Y-101917443D01*
X56815212Y-102494435D01*
X57102825Y-102617570D01*
X58220395Y-101500000D01*
X58579605Y-101500000D01*
X59697175Y-102617570D01*
X59984788Y-102494435D01*
X60244707Y-101812266D01*
X60235755Y-101500000D01*
X117489051Y-101500000D01*
X117631469Y-102215981D01*
X118037039Y-102822961D01*
X118644019Y-103228531D01*
X119179273Y-103335000D01*
X119540727Y-103335000D01*
X120075981Y-103228531D01*
X120682961Y-102822961D01*
X121088531Y-102215981D01*
X121230949Y-101500000D01*
X121088531Y-100784019D01*
X120935794Y-100555431D01*
X127765000Y-100555431D01*
X127765000Y-101444569D01*
X128105259Y-102266026D01*
X128733974Y-102894741D01*
X129555431Y-103235000D01*
X130444569Y-103235000D01*
X131266026Y-102894741D01*
X131894741Y-102266026D01*
X132235000Y-101444569D01*
X132235000Y-100555431D01*
X131894741Y-99733974D01*
X131266026Y-99105259D01*
X130444569Y-98765000D01*
X129555431Y-98765000D01*
X128733974Y-99105259D01*
X128105259Y-99733974D01*
X127765000Y-100555431D01*
X120935794Y-100555431D01*
X120682961Y-100177039D01*
X120075981Y-99771469D01*
X119540727Y-99665000D01*
X119179273Y-99665000D01*
X118644019Y-99771469D01*
X118037039Y-100177039D01*
X117631469Y-100784019D01*
X117489051Y-101500000D01*
X60235755Y-101500000D01*
X60223786Y-101082557D01*
X59984788Y-100505565D01*
X59697175Y-100382430D01*
X58579605Y-101500000D01*
X58220395Y-101500000D01*
X57102825Y-100382430D01*
X56815212Y-100505565D01*
X56555293Y-101187734D01*
X52235000Y-101187734D01*
X52235000Y-100555431D01*
X52088946Y-100202825D01*
X57282430Y-100202825D01*
X58400000Y-101320395D01*
X59517570Y-100202825D01*
X59394435Y-99915212D01*
X58712266Y-99655293D01*
X57982557Y-99676214D01*
X57405565Y-99915212D01*
X57282430Y-100202825D01*
X52088946Y-100202825D01*
X51894741Y-99733974D01*
X51266026Y-99105259D01*
X50444569Y-98765000D01*
X49555431Y-98765000D01*
X48733974Y-99105259D01*
X48105259Y-99733974D01*
X47765000Y-100555431D01*
X43711200Y-100555431D01*
X43711200Y-88635000D01*
X69000000Y-88635000D01*
X69243004Y-88586664D01*
X69449013Y-88449013D01*
X69586664Y-88243004D01*
X69635000Y-88000000D01*
X69635000Y-87697175D01*
X71882430Y-87697175D01*
X72005565Y-87984788D01*
X72687734Y-88244707D01*
X73417443Y-88223786D01*
X73994435Y-87984788D01*
X74117570Y-87697175D01*
X73000000Y-86579605D01*
X71882430Y-87697175D01*
X69635000Y-87697175D01*
X69635000Y-86087734D01*
X71155293Y-86087734D01*
X71176214Y-86817443D01*
X71415212Y-87394435D01*
X71702825Y-87517570D01*
X72820395Y-86400000D01*
X73179605Y-86400000D01*
X74297175Y-87517570D01*
X74584788Y-87394435D01*
X74844707Y-86712266D01*
X74823786Y-85982557D01*
X74584788Y-85405565D01*
X74297175Y-85282430D01*
X73179605Y-86400000D01*
X72820395Y-86400000D01*
X71702825Y-85282430D01*
X71415212Y-85405565D01*
X71155293Y-86087734D01*
X69635000Y-86087734D01*
X69635000Y-85102825D01*
X71882430Y-85102825D01*
X73000000Y-86220395D01*
X74117570Y-85102825D01*
X73994435Y-84815212D01*
X73312266Y-84555293D01*
X72582557Y-84576214D01*
X72005565Y-84815212D01*
X71882430Y-85102825D01*
X69635000Y-85102825D01*
X69635000Y-72297175D01*
X71882430Y-72297175D01*
X72005565Y-72584788D01*
X72687734Y-72844707D01*
X73417443Y-72823786D01*
X73994435Y-72584788D01*
X74117570Y-72297175D01*
X73000000Y-71179605D01*
X71882430Y-72297175D01*
X69635000Y-72297175D01*
X69635000Y-70687734D01*
X71155293Y-70687734D01*
X71176214Y-71417443D01*
X71415212Y-71994435D01*
X71702825Y-72117570D01*
X72820395Y-71000000D01*
X73179605Y-71000000D01*
X74297175Y-72117570D01*
X74584788Y-71994435D01*
X74844707Y-71312266D01*
X74823786Y-70582557D01*
X74584788Y-70005565D01*
X74297175Y-69882430D01*
X73179605Y-71000000D01*
X72820395Y-71000000D01*
X71702825Y-69882430D01*
X71415212Y-70005565D01*
X71155293Y-70687734D01*
X69635000Y-70687734D01*
X69635000Y-69702825D01*
X71882430Y-69702825D01*
X73000000Y-70820395D01*
X74117570Y-69702825D01*
X73994435Y-69415212D01*
X73312266Y-69155293D01*
X72582557Y-69176214D01*
X72005565Y-69415212D01*
X71882430Y-69702825D01*
X69635000Y-69702825D01*
X69635000Y-57411805D01*
X105171805Y-57411805D01*
X105404358Y-57973258D01*
X105895224Y-58494492D01*
X106548193Y-58788203D01*
X106833000Y-58671858D01*
X106833000Y-57127000D01*
X105288568Y-57127000D01*
X105171805Y-57411805D01*
X69635000Y-57411805D01*
X69635000Y-56588195D01*
X105171805Y-56588195D01*
X105288568Y-56873000D01*
X106833000Y-56873000D01*
X106833000Y-55328142D01*
X106548193Y-55211797D01*
X105895224Y-55505508D01*
X105404358Y-56026742D01*
X105171805Y-56588195D01*
X69635000Y-56588195D01*
X69635000Y-40711805D01*
X105071805Y-40711805D01*
X105304358Y-41273258D01*
X105795224Y-41794492D01*
X106448193Y-42088203D01*
X106733000Y-41971858D01*
X106733000Y-40427000D01*
X105188568Y-40427000D01*
X105071805Y-40711805D01*
X69635000Y-40711805D01*
X69635000Y-39888195D01*
X105071805Y-39888195D01*
X105188568Y-40173000D01*
X106733000Y-40173000D01*
X106733000Y-38628142D01*
X106448193Y-38511797D01*
X105795224Y-38805508D01*
X105304358Y-39326742D01*
X105071805Y-39888195D01*
X69635000Y-39888195D01*
X69635000Y-33000000D01*
X69586664Y-32756996D01*
X69449013Y-32550987D01*
X69243004Y-32413336D01*
X69000000Y-32365000D01*
X43711200Y-32365000D01*
X43711200Y-24555431D01*
X47765000Y-24555431D01*
X47765000Y-25444569D01*
X48105259Y-26266026D01*
X48733974Y-26894741D01*
X49555431Y-27235000D01*
X50444569Y-27235000D01*
X51266026Y-26894741D01*
X51863592Y-26297175D01*
X57882430Y-26297175D01*
X58005565Y-26584788D01*
X58687734Y-26844707D01*
X59417443Y-26823786D01*
X59994435Y-26584788D01*
X60117570Y-26297175D01*
X59000000Y-25179605D01*
X57882430Y-26297175D01*
X51863592Y-26297175D01*
X51894741Y-26266026D01*
X52235000Y-25444569D01*
X52235000Y-24687734D01*
X57155293Y-24687734D01*
X57176214Y-25417443D01*
X57415212Y-25994435D01*
X57702825Y-26117570D01*
X58820395Y-25000000D01*
X59179605Y-25000000D01*
X60297175Y-26117570D01*
X60584788Y-25994435D01*
X60844707Y-25312266D01*
X60835755Y-25000000D01*
X118089051Y-25000000D01*
X118231469Y-25715981D01*
X118637039Y-26322961D01*
X119244019Y-26728531D01*
X119779273Y-26835000D01*
X120140727Y-26835000D01*
X120675981Y-26728531D01*
X121282961Y-26322961D01*
X121688531Y-25715981D01*
X121830949Y-25000000D01*
X121742519Y-24555431D01*
X128765000Y-24555431D01*
X128765000Y-25444569D01*
X129105259Y-26266026D01*
X129733974Y-26894741D01*
X130555431Y-27235000D01*
X131444569Y-27235000D01*
X132266026Y-26894741D01*
X132894741Y-26266026D01*
X133235000Y-25444569D01*
X133235000Y-24555431D01*
X132894741Y-23733974D01*
X132266026Y-23105259D01*
X131444569Y-22765000D01*
X130555431Y-22765000D01*
X129733974Y-23105259D01*
X129105259Y-23733974D01*
X128765000Y-24555431D01*
X121742519Y-24555431D01*
X121688531Y-24284019D01*
X121282961Y-23677039D01*
X120675981Y-23271469D01*
X120140727Y-23165000D01*
X119779273Y-23165000D01*
X119244019Y-23271469D01*
X118637039Y-23677039D01*
X118231469Y-24284019D01*
X118089051Y-25000000D01*
X60835755Y-25000000D01*
X60823786Y-24582557D01*
X60584788Y-24005565D01*
X60297175Y-23882430D01*
X59179605Y-25000000D01*
X58820395Y-25000000D01*
X57702825Y-23882430D01*
X57415212Y-24005565D01*
X57155293Y-24687734D01*
X52235000Y-24687734D01*
X52235000Y-24555431D01*
X51894741Y-23733974D01*
X51863592Y-23702825D01*
X57882430Y-23702825D01*
X59000000Y-24820395D01*
X60117570Y-23702825D01*
X59994435Y-23415212D01*
X59312266Y-23155293D01*
X58582557Y-23176214D01*
X58005565Y-23415212D01*
X57882430Y-23702825D01*
X51863592Y-23702825D01*
X51266026Y-23105259D01*
X50444569Y-22765000D01*
X49555431Y-22765000D01*
X48733974Y-23105259D01*
X48105259Y-23733974D01*
X47765000Y-24555431D01*
X43711200Y-24555431D01*
X43711200Y-15711200D01*
X138288800Y-15711200D01*
X138288800Y-36365000D01*
X138288800Y-36365000D01*
G37*
X138288800Y-36365000D02*
X109000000Y-36365000D01*
X108756996Y-36413336D01*
X108550987Y-36550987D01*
X108413336Y-36756996D01*
X108365000Y-37000000D01*
X108365000Y-39272967D01*
X107924776Y-38805508D01*
X107271807Y-38511797D01*
X106987000Y-38628142D01*
X106987000Y-40173000D01*
X107007000Y-40173000D01*
X107007000Y-40427000D01*
X106987000Y-40427000D01*
X106987000Y-41971858D01*
X107271807Y-42088203D01*
X107924776Y-41794492D01*
X108365000Y-41327033D01*
X108365000Y-55866780D01*
X108024776Y-55505508D01*
X107371807Y-55211797D01*
X107087000Y-55328142D01*
X107087000Y-56873000D01*
X107107000Y-56873000D01*
X107107000Y-57127000D01*
X107087000Y-57127000D01*
X107087000Y-58671858D01*
X107371807Y-58788203D01*
X108024776Y-58494492D01*
X108365000Y-58133220D01*
X108365000Y-94000000D01*
X108413336Y-94243004D01*
X108550987Y-94449013D01*
X108756996Y-94586664D01*
X109000000Y-94635000D01*
X138288801Y-94635000D01*
X138288801Y-110288800D01*
X43711200Y-110288800D01*
X43711200Y-100555431D01*
X47765000Y-100555431D01*
X47765000Y-101444569D01*
X48105259Y-102266026D01*
X48733974Y-102894741D01*
X49555431Y-103235000D01*
X50444569Y-103235000D01*
X51266026Y-102894741D01*
X51363592Y-102797175D01*
X57282430Y-102797175D01*
X57405565Y-103084788D01*
X58087734Y-103344707D01*
X58817443Y-103323786D01*
X59394435Y-103084788D01*
X59517570Y-102797175D01*
X58400000Y-101679605D01*
X57282430Y-102797175D01*
X51363592Y-102797175D01*
X51894741Y-102266026D01*
X52235000Y-101444569D01*
X52235000Y-101187734D01*
X56555293Y-101187734D01*
X56576214Y-101917443D01*
X56815212Y-102494435D01*
X57102825Y-102617570D01*
X58220395Y-101500000D01*
X58579605Y-101500000D01*
X59697175Y-102617570D01*
X59984788Y-102494435D01*
X60244707Y-101812266D01*
X60235755Y-101500000D01*
X117489051Y-101500000D01*
X117631469Y-102215981D01*
X118037039Y-102822961D01*
X118644019Y-103228531D01*
X119179273Y-103335000D01*
X119540727Y-103335000D01*
X120075981Y-103228531D01*
X120682961Y-102822961D01*
X121088531Y-102215981D01*
X121230949Y-101500000D01*
X121088531Y-100784019D01*
X120935794Y-100555431D01*
X127765000Y-100555431D01*
X127765000Y-101444569D01*
X128105259Y-102266026D01*
X128733974Y-102894741D01*
X129555431Y-103235000D01*
X130444569Y-103235000D01*
X131266026Y-102894741D01*
X131894741Y-102266026D01*
X132235000Y-101444569D01*
X132235000Y-100555431D01*
X131894741Y-99733974D01*
X131266026Y-99105259D01*
X130444569Y-98765000D01*
X129555431Y-98765000D01*
X128733974Y-99105259D01*
X128105259Y-99733974D01*
X127765000Y-100555431D01*
X120935794Y-100555431D01*
X120682961Y-100177039D01*
X120075981Y-99771469D01*
X119540727Y-99665000D01*
X119179273Y-99665000D01*
X118644019Y-99771469D01*
X118037039Y-100177039D01*
X117631469Y-100784019D01*
X117489051Y-101500000D01*
X60235755Y-101500000D01*
X60223786Y-101082557D01*
X59984788Y-100505565D01*
X59697175Y-100382430D01*
X58579605Y-101500000D01*
X58220395Y-101500000D01*
X57102825Y-100382430D01*
X56815212Y-100505565D01*
X56555293Y-101187734D01*
X52235000Y-101187734D01*
X52235000Y-100555431D01*
X52088946Y-100202825D01*
X57282430Y-100202825D01*
X58400000Y-101320395D01*
X59517570Y-100202825D01*
X59394435Y-99915212D01*
X58712266Y-99655293D01*
X57982557Y-99676214D01*
X57405565Y-99915212D01*
X57282430Y-100202825D01*
X52088946Y-100202825D01*
X51894741Y-99733974D01*
X51266026Y-99105259D01*
X50444569Y-98765000D01*
X49555431Y-98765000D01*
X48733974Y-99105259D01*
X48105259Y-99733974D01*
X47765000Y-100555431D01*
X43711200Y-100555431D01*
X43711200Y-88635000D01*
X69000000Y-88635000D01*
X69243004Y-88586664D01*
X69449013Y-88449013D01*
X69586664Y-88243004D01*
X69635000Y-88000000D01*
X69635000Y-87697175D01*
X71882430Y-87697175D01*
X72005565Y-87984788D01*
X72687734Y-88244707D01*
X73417443Y-88223786D01*
X73994435Y-87984788D01*
X74117570Y-87697175D01*
X73000000Y-86579605D01*
X71882430Y-87697175D01*
X69635000Y-87697175D01*
X69635000Y-86087734D01*
X71155293Y-86087734D01*
X71176214Y-86817443D01*
X71415212Y-87394435D01*
X71702825Y-87517570D01*
X72820395Y-86400000D01*
X73179605Y-86400000D01*
X74297175Y-87517570D01*
X74584788Y-87394435D01*
X74844707Y-86712266D01*
X74823786Y-85982557D01*
X74584788Y-85405565D01*
X74297175Y-85282430D01*
X73179605Y-86400000D01*
X72820395Y-86400000D01*
X71702825Y-85282430D01*
X71415212Y-85405565D01*
X71155293Y-86087734D01*
X69635000Y-86087734D01*
X69635000Y-85102825D01*
X71882430Y-85102825D01*
X73000000Y-86220395D01*
X74117570Y-85102825D01*
X73994435Y-84815212D01*
X73312266Y-84555293D01*
X72582557Y-84576214D01*
X72005565Y-84815212D01*
X71882430Y-85102825D01*
X69635000Y-85102825D01*
X69635000Y-72297175D01*
X71882430Y-72297175D01*
X72005565Y-72584788D01*
X72687734Y-72844707D01*
X73417443Y-72823786D01*
X73994435Y-72584788D01*
X74117570Y-72297175D01*
X73000000Y-71179605D01*
X71882430Y-72297175D01*
X69635000Y-72297175D01*
X69635000Y-70687734D01*
X71155293Y-70687734D01*
X71176214Y-71417443D01*
X71415212Y-71994435D01*
X71702825Y-72117570D01*
X72820395Y-71000000D01*
X73179605Y-71000000D01*
X74297175Y-72117570D01*
X74584788Y-71994435D01*
X74844707Y-71312266D01*
X74823786Y-70582557D01*
X74584788Y-70005565D01*
X74297175Y-69882430D01*
X73179605Y-71000000D01*
X72820395Y-71000000D01*
X71702825Y-69882430D01*
X71415212Y-70005565D01*
X71155293Y-70687734D01*
X69635000Y-70687734D01*
X69635000Y-69702825D01*
X71882430Y-69702825D01*
X73000000Y-70820395D01*
X74117570Y-69702825D01*
X73994435Y-69415212D01*
X73312266Y-69155293D01*
X72582557Y-69176214D01*
X72005565Y-69415212D01*
X71882430Y-69702825D01*
X69635000Y-69702825D01*
X69635000Y-57411805D01*
X105171805Y-57411805D01*
X105404358Y-57973258D01*
X105895224Y-58494492D01*
X106548193Y-58788203D01*
X106833000Y-58671858D01*
X106833000Y-57127000D01*
X105288568Y-57127000D01*
X105171805Y-57411805D01*
X69635000Y-57411805D01*
X69635000Y-56588195D01*
X105171805Y-56588195D01*
X105288568Y-56873000D01*
X106833000Y-56873000D01*
X106833000Y-55328142D01*
X106548193Y-55211797D01*
X105895224Y-55505508D01*
X105404358Y-56026742D01*
X105171805Y-56588195D01*
X69635000Y-56588195D01*
X69635000Y-40711805D01*
X105071805Y-40711805D01*
X105304358Y-41273258D01*
X105795224Y-41794492D01*
X106448193Y-42088203D01*
X106733000Y-41971858D01*
X106733000Y-40427000D01*
X105188568Y-40427000D01*
X105071805Y-40711805D01*
X69635000Y-40711805D01*
X69635000Y-39888195D01*
X105071805Y-39888195D01*
X105188568Y-40173000D01*
X106733000Y-40173000D01*
X106733000Y-38628142D01*
X106448193Y-38511797D01*
X105795224Y-38805508D01*
X105304358Y-39326742D01*
X105071805Y-39888195D01*
X69635000Y-39888195D01*
X69635000Y-33000000D01*
X69586664Y-32756996D01*
X69449013Y-32550987D01*
X69243004Y-32413336D01*
X69000000Y-32365000D01*
X43711200Y-32365000D01*
X43711200Y-24555431D01*
X47765000Y-24555431D01*
X47765000Y-25444569D01*
X48105259Y-26266026D01*
X48733974Y-26894741D01*
X49555431Y-27235000D01*
X50444569Y-27235000D01*
X51266026Y-26894741D01*
X51863592Y-26297175D01*
X57882430Y-26297175D01*
X58005565Y-26584788D01*
X58687734Y-26844707D01*
X59417443Y-26823786D01*
X59994435Y-26584788D01*
X60117570Y-26297175D01*
X59000000Y-25179605D01*
X57882430Y-26297175D01*
X51863592Y-26297175D01*
X51894741Y-26266026D01*
X52235000Y-25444569D01*
X52235000Y-24687734D01*
X57155293Y-24687734D01*
X57176214Y-25417443D01*
X57415212Y-25994435D01*
X57702825Y-26117570D01*
X58820395Y-25000000D01*
X59179605Y-25000000D01*
X60297175Y-26117570D01*
X60584788Y-25994435D01*
X60844707Y-25312266D01*
X60835755Y-25000000D01*
X118089051Y-25000000D01*
X118231469Y-25715981D01*
X118637039Y-26322961D01*
X119244019Y-26728531D01*
X119779273Y-26835000D01*
X120140727Y-26835000D01*
X120675981Y-26728531D01*
X121282961Y-26322961D01*
X121688531Y-25715981D01*
X121830949Y-25000000D01*
X121742519Y-24555431D01*
X128765000Y-24555431D01*
X128765000Y-25444569D01*
X129105259Y-26266026D01*
X129733974Y-26894741D01*
X130555431Y-27235000D01*
X131444569Y-27235000D01*
X132266026Y-26894741D01*
X132894741Y-26266026D01*
X133235000Y-25444569D01*
X133235000Y-24555431D01*
X132894741Y-23733974D01*
X132266026Y-23105259D01*
X131444569Y-22765000D01*
X130555431Y-22765000D01*
X129733974Y-23105259D01*
X129105259Y-23733974D01*
X128765000Y-24555431D01*
X121742519Y-24555431D01*
X121688531Y-24284019D01*
X121282961Y-23677039D01*
X120675981Y-23271469D01*
X120140727Y-23165000D01*
X119779273Y-23165000D01*
X119244019Y-23271469D01*
X118637039Y-23677039D01*
X118231469Y-24284019D01*
X118089051Y-25000000D01*
X60835755Y-25000000D01*
X60823786Y-24582557D01*
X60584788Y-24005565D01*
X60297175Y-23882430D01*
X59179605Y-25000000D01*
X58820395Y-25000000D01*
X57702825Y-23882430D01*
X57415212Y-24005565D01*
X57155293Y-24687734D01*
X52235000Y-24687734D01*
X52235000Y-24555431D01*
X51894741Y-23733974D01*
X51863592Y-23702825D01*
X57882430Y-23702825D01*
X59000000Y-24820395D01*
X60117570Y-23702825D01*
X59994435Y-23415212D01*
X59312266Y-23155293D01*
X58582557Y-23176214D01*
X58005565Y-23415212D01*
X57882430Y-23702825D01*
X51863592Y-23702825D01*
X51266026Y-23105259D01*
X50444569Y-22765000D01*
X49555431Y-22765000D01*
X48733974Y-23105259D01*
X48105259Y-23733974D01*
X47765000Y-24555431D01*
X43711200Y-24555431D01*
X43711200Y-15711200D01*
X138288800Y-15711200D01*
X138288800Y-36365000D01*
G04 #@! TD*
M02*
