%FSLAX45Y45*%
G04 Gerber Fmt 4.5, Leading zero omitted, Abs format (unit mm)*
G04 Created by KiCad (PCBNEW 5.0.0) date Sun Sep 30 11:55:28 2018*
%MOMM*%
%LPD*%
G01*
G04 APERTURE LIST*
%ADD10C,0.152400*%
%ADD11C,0.200000*%
%ADD12C,0.300000*%
G04 APERTURE END LIST*
D10*
X4300000Y-11100000D02*
X4300000Y-1500000D01*
X13900000Y-11100000D02*
X4300000Y-11100000D01*
X13900000Y-1500000D02*
X13900000Y-11100000D01*
X4300000Y-1500000D02*
X13900000Y-1500000D01*
D11*
X12840000Y-9940000D02*
X13160000Y-10260000D01*
X13160000Y-9940000D02*
X12840000Y-10260000D01*
X12940000Y-2340000D02*
X13260000Y-2660000D01*
X13260000Y-2340000D02*
X12940000Y-2660000D01*
X4840000Y-9940000D02*
X5160000Y-10260000D01*
X5160000Y-9940000D02*
X4840000Y-10260000D01*
X4840000Y-2340000D02*
X5160000Y-2660000D01*
X5160000Y-2340000D02*
X4840000Y-2660000D01*
D12*
X4578808Y-11573334D02*
X4578808Y-11273334D01*
X4650237Y-11273334D01*
X4693094Y-11287620D01*
X4721666Y-11316191D01*
X4735951Y-11344763D01*
X4750237Y-11401906D01*
X4750237Y-11444763D01*
X4735951Y-11501906D01*
X4721666Y-11530477D01*
X4693094Y-11559049D01*
X4650237Y-11573334D01*
X4578808Y-11573334D01*
X4878808Y-11573334D02*
X4878808Y-11373334D01*
X4878808Y-11430477D02*
X4893094Y-11401906D01*
X4907380Y-11387620D01*
X4935951Y-11373334D01*
X4964523Y-11373334D01*
X5064523Y-11573334D02*
X5064523Y-11373334D01*
X5064523Y-11273334D02*
X5050237Y-11287620D01*
X5064523Y-11301906D01*
X5078808Y-11287620D01*
X5064523Y-11273334D01*
X5064523Y-11301906D01*
X5250237Y-11573334D02*
X5221666Y-11559049D01*
X5207380Y-11530477D01*
X5207380Y-11273334D01*
X5407380Y-11573334D02*
X5378808Y-11559049D01*
X5364523Y-11530477D01*
X5364523Y-11273334D01*
X5750237Y-11573334D02*
X5750237Y-11273334D01*
X5850237Y-11487620D01*
X5950237Y-11273334D01*
X5950237Y-11573334D01*
X6221666Y-11573334D02*
X6221666Y-11416191D01*
X6207380Y-11387620D01*
X6178808Y-11373334D01*
X6121666Y-11373334D01*
X6093094Y-11387620D01*
X6221666Y-11559049D02*
X6193094Y-11573334D01*
X6121666Y-11573334D01*
X6093094Y-11559049D01*
X6078808Y-11530477D01*
X6078808Y-11501906D01*
X6093094Y-11473334D01*
X6121666Y-11459049D01*
X6193094Y-11459049D01*
X6221666Y-11444763D01*
X6364523Y-11373334D02*
X6364523Y-11673334D01*
X6364523Y-11387620D02*
X6393094Y-11373334D01*
X6450237Y-11373334D01*
X6478808Y-11387620D01*
X6493094Y-11401906D01*
X6507380Y-11430477D01*
X6507380Y-11516191D01*
X6493094Y-11544763D01*
X6478808Y-11559049D01*
X6450237Y-11573334D01*
X6393094Y-11573334D01*
X6364523Y-11559049D01*
X6635951Y-11544763D02*
X6650237Y-11559049D01*
X6635951Y-11573334D01*
X6621666Y-11559049D01*
X6635951Y-11544763D01*
X6635951Y-11573334D01*
X6635951Y-11387620D02*
X6650237Y-11401906D01*
X6635951Y-11416191D01*
X6621666Y-11401906D01*
X6635951Y-11387620D01*
X6635951Y-11416191D01*
X3972380Y-11907620D02*
X4292380Y-12227620D01*
X4292380Y-11907620D02*
X3972380Y-12227620D01*
X4550237Y-11903334D02*
X4735951Y-11903334D01*
X4635951Y-12017620D01*
X4678808Y-12017620D01*
X4707380Y-12031906D01*
X4721666Y-12046191D01*
X4735951Y-12074763D01*
X4735951Y-12146191D01*
X4721666Y-12174763D01*
X4707380Y-12189049D01*
X4678808Y-12203334D01*
X4593094Y-12203334D01*
X4564523Y-12189049D01*
X4550237Y-12174763D01*
X4864523Y-12174763D02*
X4878808Y-12189049D01*
X4864523Y-12203334D01*
X4850237Y-12189049D01*
X4864523Y-12174763D01*
X4864523Y-12203334D01*
X4993094Y-11931906D02*
X5007380Y-11917620D01*
X5035951Y-11903334D01*
X5107380Y-11903334D01*
X5135951Y-11917620D01*
X5150237Y-11931906D01*
X5164523Y-11960477D01*
X5164523Y-11989049D01*
X5150237Y-12031906D01*
X4978808Y-12203334D01*
X5164523Y-12203334D01*
X5350237Y-11903334D02*
X5378808Y-11903334D01*
X5407380Y-11917620D01*
X5421666Y-11931906D01*
X5435951Y-11960477D01*
X5450237Y-12017620D01*
X5450237Y-12089049D01*
X5435951Y-12146191D01*
X5421666Y-12174763D01*
X5407380Y-12189049D01*
X5378808Y-12203334D01*
X5350237Y-12203334D01*
X5321666Y-12189049D01*
X5307380Y-12174763D01*
X5293094Y-12146191D01*
X5278808Y-12089049D01*
X5278808Y-12017620D01*
X5293094Y-11960477D01*
X5307380Y-11931906D01*
X5321666Y-11917620D01*
X5350237Y-11903334D01*
X5578808Y-12203334D02*
X5578808Y-12003334D01*
X5578808Y-12031906D02*
X5593094Y-12017620D01*
X5621666Y-12003334D01*
X5664523Y-12003334D01*
X5693094Y-12017620D01*
X5707380Y-12046191D01*
X5707380Y-12203334D01*
X5707380Y-12046191D02*
X5721666Y-12017620D01*
X5750237Y-12003334D01*
X5793094Y-12003334D01*
X5821666Y-12017620D01*
X5835951Y-12046191D01*
X5835951Y-12203334D01*
X5978808Y-12203334D02*
X5978808Y-12003334D01*
X5978808Y-12031906D02*
X5993094Y-12017620D01*
X6021666Y-12003334D01*
X6064523Y-12003334D01*
X6093094Y-12017620D01*
X6107380Y-12046191D01*
X6107380Y-12203334D01*
X6107380Y-12046191D02*
X6121666Y-12017620D01*
X6150237Y-12003334D01*
X6193094Y-12003334D01*
X6221666Y-12017620D01*
X6235951Y-12046191D01*
X6235951Y-12203334D01*
X6821666Y-11889049D02*
X6564523Y-12274763D01*
X7207380Y-11903334D02*
X7235951Y-11903334D01*
X7264523Y-11917620D01*
X7278808Y-11931906D01*
X7293094Y-11960477D01*
X7307380Y-12017620D01*
X7307380Y-12089049D01*
X7293094Y-12146191D01*
X7278808Y-12174763D01*
X7264523Y-12189049D01*
X7235951Y-12203334D01*
X7207380Y-12203334D01*
X7178808Y-12189049D01*
X7164523Y-12174763D01*
X7150237Y-12146191D01*
X7135951Y-12089049D01*
X7135951Y-12017620D01*
X7150237Y-11960477D01*
X7164523Y-11931906D01*
X7178808Y-11917620D01*
X7207380Y-11903334D01*
X7435951Y-12174763D02*
X7450237Y-12189049D01*
X7435951Y-12203334D01*
X7421666Y-12189049D01*
X7435951Y-12174763D01*
X7435951Y-12203334D01*
X7735951Y-12203334D02*
X7564523Y-12203334D01*
X7650237Y-12203334D02*
X7650237Y-11903334D01*
X7621666Y-11946191D01*
X7593094Y-11974763D01*
X7564523Y-11989049D01*
X7850237Y-11931906D02*
X7864523Y-11917620D01*
X7893094Y-11903334D01*
X7964523Y-11903334D01*
X7993094Y-11917620D01*
X8007380Y-11931906D01*
X8021666Y-11960477D01*
X8021666Y-11989049D01*
X8007380Y-12031906D01*
X7835951Y-12203334D01*
X8021666Y-12203334D01*
X8278808Y-11903334D02*
X8221666Y-11903334D01*
X8193094Y-11917620D01*
X8178808Y-11931906D01*
X8150237Y-11974763D01*
X8135951Y-12031906D01*
X8135951Y-12146191D01*
X8150237Y-12174763D01*
X8164523Y-12189049D01*
X8193094Y-12203334D01*
X8250237Y-12203334D01*
X8278808Y-12189049D01*
X8293094Y-12174763D01*
X8307380Y-12146191D01*
X8307380Y-12074763D01*
X8293094Y-12046191D01*
X8278808Y-12031906D01*
X8250237Y-12017620D01*
X8193094Y-12017620D01*
X8164523Y-12031906D01*
X8150237Y-12046191D01*
X8135951Y-12074763D01*
X8421666Y-11903334D02*
X8421666Y-11960477D01*
X8535951Y-11903334D02*
X8535951Y-11960477D01*
X8978808Y-12317620D02*
X8964523Y-12303334D01*
X8935951Y-12260477D01*
X8921666Y-12231906D01*
X8907380Y-12189049D01*
X8893094Y-12117620D01*
X8893094Y-12060477D01*
X8907380Y-11989049D01*
X8921666Y-11946191D01*
X8935951Y-11917620D01*
X8964523Y-11874763D01*
X8978808Y-11860477D01*
X9221666Y-12003334D02*
X9221666Y-12203334D01*
X9150237Y-11889049D02*
X9078808Y-12103334D01*
X9264523Y-12103334D01*
X9607380Y-12203334D02*
X9607380Y-11903334D01*
X9735951Y-12203334D02*
X9735951Y-12046191D01*
X9721666Y-12017620D01*
X9693094Y-12003334D01*
X9650237Y-12003334D01*
X9621666Y-12017620D01*
X9607380Y-12031906D01*
X9921666Y-12203334D02*
X9893094Y-12189049D01*
X9878808Y-12174763D01*
X9864523Y-12146191D01*
X9864523Y-12060477D01*
X9878808Y-12031906D01*
X9893094Y-12017620D01*
X9921666Y-12003334D01*
X9964523Y-12003334D01*
X9993094Y-12017620D01*
X10007380Y-12031906D01*
X10021666Y-12060477D01*
X10021666Y-12146191D01*
X10007380Y-12174763D01*
X9993094Y-12189049D01*
X9964523Y-12203334D01*
X9921666Y-12203334D01*
X10193094Y-12203334D02*
X10164523Y-12189049D01*
X10150237Y-12160477D01*
X10150237Y-11903334D01*
X10421666Y-12189049D02*
X10393094Y-12203334D01*
X10335951Y-12203334D01*
X10307380Y-12189049D01*
X10293094Y-12160477D01*
X10293094Y-12046191D01*
X10307380Y-12017620D01*
X10335951Y-12003334D01*
X10393094Y-12003334D01*
X10421666Y-12017620D01*
X10435951Y-12046191D01*
X10435951Y-12074763D01*
X10293094Y-12103334D01*
X10550237Y-12189049D02*
X10578808Y-12203334D01*
X10635951Y-12203334D01*
X10664523Y-12189049D01*
X10678808Y-12160477D01*
X10678808Y-12146191D01*
X10664523Y-12117620D01*
X10635951Y-12103334D01*
X10593094Y-12103334D01*
X10564523Y-12089049D01*
X10550237Y-12060477D01*
X10550237Y-12046191D01*
X10564523Y-12017620D01*
X10593094Y-12003334D01*
X10635951Y-12003334D01*
X10664523Y-12017620D01*
X10778808Y-12317620D02*
X10793094Y-12303334D01*
X10821666Y-12260477D01*
X10835951Y-12231906D01*
X10850237Y-12189049D01*
X10864523Y-12117620D01*
X10864523Y-12060477D01*
X10850237Y-11989049D01*
X10835951Y-11946191D01*
X10821666Y-11917620D01*
X10793094Y-11874763D01*
X10778808Y-11860477D01*
X11321666Y-12317620D02*
X11307380Y-12303334D01*
X11278808Y-12260477D01*
X11264523Y-12231906D01*
X11250237Y-12189049D01*
X11235951Y-12117620D01*
X11235951Y-12060477D01*
X11250237Y-11989049D01*
X11264523Y-11946191D01*
X11278808Y-11917620D01*
X11307380Y-11874763D01*
X11321666Y-11860477D01*
X11435951Y-12003334D02*
X11435951Y-12203334D01*
X11435951Y-12031906D02*
X11450237Y-12017620D01*
X11478808Y-12003334D01*
X11521666Y-12003334D01*
X11550237Y-12017620D01*
X11564523Y-12046191D01*
X11564523Y-12203334D01*
X11750237Y-12203334D02*
X11721666Y-12189049D01*
X11707380Y-12174763D01*
X11693094Y-12146191D01*
X11693094Y-12060477D01*
X11707380Y-12031906D01*
X11721666Y-12017620D01*
X11750237Y-12003334D01*
X11793094Y-12003334D01*
X11821666Y-12017620D01*
X11835951Y-12031906D01*
X11850237Y-12060477D01*
X11850237Y-12146191D01*
X11835951Y-12174763D01*
X11821666Y-12189049D01*
X11793094Y-12203334D01*
X11750237Y-12203334D01*
X11935951Y-12003334D02*
X12050237Y-12003334D01*
X11978808Y-11903334D02*
X11978808Y-12160477D01*
X11993094Y-12189049D01*
X12021666Y-12203334D01*
X12050237Y-12203334D01*
X12378808Y-12003334D02*
X12378808Y-12303334D01*
X12378808Y-12017620D02*
X12407380Y-12003334D01*
X12464523Y-12003334D01*
X12493094Y-12017620D01*
X12507380Y-12031906D01*
X12521666Y-12060477D01*
X12521666Y-12146191D01*
X12507380Y-12174763D01*
X12493094Y-12189049D01*
X12464523Y-12203334D01*
X12407380Y-12203334D01*
X12378808Y-12189049D01*
X12693094Y-12203334D02*
X12664523Y-12189049D01*
X12650237Y-12160477D01*
X12650237Y-11903334D01*
X12935951Y-12203334D02*
X12935951Y-12046191D01*
X12921666Y-12017620D01*
X12893094Y-12003334D01*
X12835951Y-12003334D01*
X12807380Y-12017620D01*
X12935951Y-12189049D02*
X12907380Y-12203334D01*
X12835951Y-12203334D01*
X12807380Y-12189049D01*
X12793094Y-12160477D01*
X12793094Y-12131906D01*
X12807380Y-12103334D01*
X12835951Y-12089049D01*
X12907380Y-12089049D01*
X12935951Y-12074763D01*
X13035951Y-12003334D02*
X13150237Y-12003334D01*
X13078808Y-11903334D02*
X13078808Y-12160477D01*
X13093094Y-12189049D01*
X13121666Y-12203334D01*
X13150237Y-12203334D01*
X13364523Y-12189049D02*
X13335951Y-12203334D01*
X13278808Y-12203334D01*
X13250237Y-12189049D01*
X13235951Y-12160477D01*
X13235951Y-12046191D01*
X13250237Y-12017620D01*
X13278808Y-12003334D01*
X13335951Y-12003334D01*
X13364523Y-12017620D01*
X13378808Y-12046191D01*
X13378808Y-12074763D01*
X13235951Y-12103334D01*
X13635951Y-12203334D02*
X13635951Y-11903334D01*
X13635951Y-12189049D02*
X13607380Y-12203334D01*
X13550237Y-12203334D01*
X13521666Y-12189049D01*
X13507380Y-12174763D01*
X13493094Y-12146191D01*
X13493094Y-12060477D01*
X13507380Y-12031906D01*
X13521666Y-12017620D01*
X13550237Y-12003334D01*
X13607380Y-12003334D01*
X13635951Y-12017620D01*
X13750237Y-12317620D02*
X13764523Y-12303334D01*
X13793094Y-12260477D01*
X13807380Y-12231906D01*
X13821666Y-12189049D01*
X13835951Y-12117620D01*
X13835951Y-12060477D01*
X13821666Y-11989049D01*
X13807380Y-11946191D01*
X13793094Y-11917620D01*
X13764523Y-11874763D01*
X13750237Y-11860477D01*
M02*
