M48
;DRILL file {KiCad 5.0.0} date Sun Sep 30 11:55:26 2018
;FORMAT={-:-/ absolute / inch / decimal}
FMAT,2
INCH,TZ
T1C0.0472
T2C0.0591
%
G90
G05
M72
T1
X2.3228Y-0.9843
X4.7228Y-0.9843
X2.2992Y-3.9961
X4.6992Y-3.9961
X2.874Y-2.7953
X5.274Y-2.7953
X1.8071Y-1.5866
X4.2071Y-1.5866
X2.874Y-3.4016
X5.274Y-3.4016
X1.811Y-2.2441
X4.211Y-2.2441
T2
X4.6732Y-1.6201
X4.6732Y-2.2697
X5.1732Y-1.6201
X5.1732Y-2.2697
X1.9173Y-2.7461
X1.9173Y-3.3957
X2.4173Y-2.7461
X2.4173Y-3.3957
T0
M30
