G04 #@! TF.GenerationSoftware,KiCad,Pcbnew,5.0.0*
G04 #@! TF.CreationDate,2018-09-30T11:55:23-04:00*
G04 #@! TF.ProjectId,audio-attenuator,617564696F2D617474656E7561746F72,rev?*
G04 #@! TF.SameCoordinates,Original*
G04 #@! TF.FileFunction,Copper,L2,Bot,Signal*
G04 #@! TF.FilePolarity,Positive*
%FSLAX46Y46*%
G04 Gerber Fmt 4.6, Leading zero omitted, Abs format (unit mm)*
G04 Created by KiCad (PCBNEW 5.0.0) date Sun Sep 30 11:55:23 2018*
%MOMM*%
%LPD*%
G01*
G04 APERTURE LIST*
G04 #@! TA.AperFunction,ComponentPad*
%ADD10C,2.400000*%
G04 #@! TD*
G04 #@! TA.AperFunction,ComponentPad*
%ADD11O,2.400000X2.400000*%
G04 #@! TD*
G04 #@! TA.AperFunction,ComponentPad*
%ADD12C,3.500000*%
G04 #@! TD*
G04 #@! TA.AperFunction,Conductor*
%ADD13C,1.270000*%
G04 #@! TD*
G04 #@! TA.AperFunction,Conductor*
%ADD14C,0.254000*%
G04 #@! TD*
G04 APERTURE END LIST*
D10*
G04 #@! TO.P,R6,1*
G04 #@! TO.N,/ATTEN*
X73000000Y-86400000D03*
D11*
G04 #@! TO.P,R6,2*
G04 #@! TO.N,/OUT*
X133960000Y-86400000D03*
G04 #@! TD*
G04 #@! TO.P,R5,2*
G04 #@! TO.N,/OUT*
X133960000Y-71000000D03*
D10*
G04 #@! TO.P,R5,1*
G04 #@! TO.N,/ATTEN*
X73000000Y-71000000D03*
G04 #@! TD*
G04 #@! TO.P,R4,1*
G04 #@! TO.N,/ATTEN*
X59000000Y-25000000D03*
D11*
G04 #@! TO.P,R4,2*
G04 #@! TO.N,GND*
X119960000Y-25000000D03*
G04 #@! TD*
G04 #@! TO.P,R3,2*
G04 #@! TO.N,GND*
X119360000Y-101500000D03*
D10*
G04 #@! TO.P,R3,1*
G04 #@! TO.N,/ATTEN*
X58400000Y-101500000D03*
G04 #@! TD*
G04 #@! TO.P,R2,1*
G04 #@! TO.N,/IN*
X46000000Y-57000000D03*
D11*
G04 #@! TO.P,R2,2*
G04 #@! TO.N,/ATTEN*
X106960000Y-57000000D03*
G04 #@! TD*
G04 #@! TO.P,R1,2*
G04 #@! TO.N,/ATTEN*
X106860000Y-40300000D03*
D10*
G04 #@! TO.P,R1,1*
G04 #@! TO.N,/IN*
X45900000Y-40300000D03*
G04 #@! TD*
D12*
G04 #@! TO.P,J2,T*
G04 #@! TO.N,/OUT*
X118700000Y-41150000D03*
X118700000Y-57650000D03*
G04 #@! TO.P,J2,S*
G04 #@! TO.N,GND*
X131400000Y-57650000D03*
X131400000Y-41150000D03*
G04 #@! TD*
G04 #@! TO.P,J1,S*
G04 #@! TO.N,GND*
X48700000Y-86250000D03*
X48700000Y-69750000D03*
G04 #@! TO.P,J1,T*
G04 #@! TO.N,/IN*
X61400000Y-69750000D03*
X61400000Y-86250000D03*
G04 #@! TD*
D13*
G04 #@! TO.N,GND*
X48700000Y-69750000D02*
X48700000Y-86250000D01*
X63950000Y-101500000D02*
X119360000Y-101500000D01*
X48700000Y-86250000D02*
X63950000Y-101500000D01*
X131400000Y-55175127D02*
X131400000Y-41150000D01*
X131400000Y-57650000D02*
X131400000Y-55175127D01*
X131400000Y-89460000D02*
X119360000Y-101500000D01*
X131400000Y-57650000D02*
X131400000Y-89460000D01*
X119960000Y-29710000D02*
X131400000Y-41150000D01*
X119960000Y-25000000D02*
X119960000Y-29710000D01*
G04 #@! TD*
D14*
G04 #@! TO.N,GND*
G36*
X138288801Y-110288800D02*
X43711200Y-110288800D01*
X43711200Y-100555431D01*
X47765000Y-100555431D01*
X47765000Y-101444569D01*
X48105259Y-102266026D01*
X48733974Y-102894741D01*
X49555431Y-103235000D01*
X50444569Y-103235000D01*
X51266026Y-102894741D01*
X51894741Y-102266026D01*
X52235000Y-101444569D01*
X52235000Y-101134996D01*
X56565000Y-101134996D01*
X56565000Y-101865004D01*
X56844362Y-102539444D01*
X57360556Y-103055638D01*
X58034996Y-103335000D01*
X58765004Y-103335000D01*
X59439444Y-103055638D01*
X59955638Y-102539444D01*
X60215614Y-101911805D01*
X117571805Y-101911805D01*
X117804358Y-102473258D01*
X118295224Y-102994492D01*
X118948193Y-103288203D01*
X119233000Y-103171858D01*
X119233000Y-101627000D01*
X119487000Y-101627000D01*
X119487000Y-103171858D01*
X119771807Y-103288203D01*
X120424776Y-102994492D01*
X120915642Y-102473258D01*
X121148195Y-101911805D01*
X121031432Y-101627000D01*
X119487000Y-101627000D01*
X119233000Y-101627000D01*
X117688568Y-101627000D01*
X117571805Y-101911805D01*
X60215614Y-101911805D01*
X60235000Y-101865004D01*
X60235000Y-101134996D01*
X60215615Y-101088195D01*
X117571805Y-101088195D01*
X117688568Y-101373000D01*
X119233000Y-101373000D01*
X119233000Y-99828142D01*
X119487000Y-99828142D01*
X119487000Y-101373000D01*
X121031432Y-101373000D01*
X121148195Y-101088195D01*
X120927525Y-100555431D01*
X127765000Y-100555431D01*
X127765000Y-101444569D01*
X128105259Y-102266026D01*
X128733974Y-102894741D01*
X129555431Y-103235000D01*
X130444569Y-103235000D01*
X131266026Y-102894741D01*
X131894741Y-102266026D01*
X132235000Y-101444569D01*
X132235000Y-100555431D01*
X131894741Y-99733974D01*
X131266026Y-99105259D01*
X130444569Y-98765000D01*
X129555431Y-98765000D01*
X128733974Y-99105259D01*
X128105259Y-99733974D01*
X127765000Y-100555431D01*
X120927525Y-100555431D01*
X120915642Y-100526742D01*
X120424776Y-100005508D01*
X119771807Y-99711797D01*
X119487000Y-99828142D01*
X119233000Y-99828142D01*
X118948193Y-99711797D01*
X118295224Y-100005508D01*
X117804358Y-100526742D01*
X117571805Y-101088195D01*
X60215615Y-101088195D01*
X59955638Y-100460556D01*
X59439444Y-99944362D01*
X58765004Y-99665000D01*
X58034996Y-99665000D01*
X57360556Y-99944362D01*
X56844362Y-100460556D01*
X56565000Y-101134996D01*
X52235000Y-101134996D01*
X52235000Y-100555431D01*
X51894741Y-99733974D01*
X51266026Y-99105259D01*
X50444569Y-98765000D01*
X49555431Y-98765000D01*
X48733974Y-99105259D01*
X48105259Y-99733974D01*
X47765000Y-100555431D01*
X43711200Y-100555431D01*
X43711200Y-87944528D01*
X47185077Y-87944528D01*
X47375364Y-88289271D01*
X48256591Y-88640956D01*
X49205323Y-88628641D01*
X50024636Y-88289271D01*
X50214923Y-87944528D01*
X48700000Y-86429605D01*
X47185077Y-87944528D01*
X43711200Y-87944528D01*
X43711200Y-85806591D01*
X46309044Y-85806591D01*
X46321359Y-86755323D01*
X46660729Y-87574636D01*
X47005472Y-87764923D01*
X48520395Y-86250000D01*
X48879605Y-86250000D01*
X50394528Y-87764923D01*
X50739271Y-87574636D01*
X51090956Y-86693409D01*
X51079043Y-85775594D01*
X59015000Y-85775594D01*
X59015000Y-86724406D01*
X59378095Y-87600994D01*
X60049006Y-88271905D01*
X60925594Y-88635000D01*
X61874406Y-88635000D01*
X62750994Y-88271905D01*
X63421905Y-87600994D01*
X63785000Y-86724406D01*
X63785000Y-86034996D01*
X71165000Y-86034996D01*
X71165000Y-86765004D01*
X71444362Y-87439444D01*
X71960556Y-87955638D01*
X72634996Y-88235000D01*
X73365004Y-88235000D01*
X74039444Y-87955638D01*
X74555638Y-87439444D01*
X74835000Y-86765004D01*
X74835000Y-86400000D01*
X132089051Y-86400000D01*
X132231469Y-87115981D01*
X132637039Y-87722961D01*
X133244019Y-88128531D01*
X133779273Y-88235000D01*
X134140727Y-88235000D01*
X134675981Y-88128531D01*
X135282961Y-87722961D01*
X135688531Y-87115981D01*
X135830949Y-86400000D01*
X135688531Y-85684019D01*
X135282961Y-85077039D01*
X134675981Y-84671469D01*
X134140727Y-84565000D01*
X133779273Y-84565000D01*
X133244019Y-84671469D01*
X132637039Y-85077039D01*
X132231469Y-85684019D01*
X132089051Y-86400000D01*
X74835000Y-86400000D01*
X74835000Y-86034996D01*
X74555638Y-85360556D01*
X74039444Y-84844362D01*
X73365004Y-84565000D01*
X72634996Y-84565000D01*
X71960556Y-84844362D01*
X71444362Y-85360556D01*
X71165000Y-86034996D01*
X63785000Y-86034996D01*
X63785000Y-85775594D01*
X63421905Y-84899006D01*
X62750994Y-84228095D01*
X61874406Y-83865000D01*
X60925594Y-83865000D01*
X60049006Y-84228095D01*
X59378095Y-84899006D01*
X59015000Y-85775594D01*
X51079043Y-85775594D01*
X51078641Y-85744677D01*
X50739271Y-84925364D01*
X50394528Y-84735077D01*
X48879605Y-86250000D01*
X48520395Y-86250000D01*
X47005472Y-84735077D01*
X46660729Y-84925364D01*
X46309044Y-85806591D01*
X43711200Y-85806591D01*
X43711200Y-84555472D01*
X47185077Y-84555472D01*
X48700000Y-86070395D01*
X50214923Y-84555472D01*
X50024636Y-84210729D01*
X49143409Y-83859044D01*
X48194677Y-83871359D01*
X47375364Y-84210729D01*
X47185077Y-84555472D01*
X43711200Y-84555472D01*
X43711200Y-71444528D01*
X47185077Y-71444528D01*
X47375364Y-71789271D01*
X48256591Y-72140956D01*
X49205323Y-72128641D01*
X50024636Y-71789271D01*
X50214923Y-71444528D01*
X48700000Y-69929605D01*
X47185077Y-71444528D01*
X43711200Y-71444528D01*
X43711200Y-69306591D01*
X46309044Y-69306591D01*
X46321359Y-70255323D01*
X46660729Y-71074636D01*
X47005472Y-71264923D01*
X48520395Y-69750000D01*
X48879605Y-69750000D01*
X50394528Y-71264923D01*
X50739271Y-71074636D01*
X51090956Y-70193409D01*
X51079043Y-69275594D01*
X59015000Y-69275594D01*
X59015000Y-70224406D01*
X59378095Y-71100994D01*
X60049006Y-71771905D01*
X60925594Y-72135000D01*
X61874406Y-72135000D01*
X62750994Y-71771905D01*
X63421905Y-71100994D01*
X63614927Y-70634996D01*
X71165000Y-70634996D01*
X71165000Y-71365004D01*
X71444362Y-72039444D01*
X71960556Y-72555638D01*
X72634996Y-72835000D01*
X73365004Y-72835000D01*
X74039444Y-72555638D01*
X74555638Y-72039444D01*
X74835000Y-71365004D01*
X74835000Y-71000000D01*
X132089051Y-71000000D01*
X132231469Y-71715981D01*
X132637039Y-72322961D01*
X133244019Y-72728531D01*
X133779273Y-72835000D01*
X134140727Y-72835000D01*
X134675981Y-72728531D01*
X135282961Y-72322961D01*
X135688531Y-71715981D01*
X135830949Y-71000000D01*
X135688531Y-70284019D01*
X135282961Y-69677039D01*
X134675981Y-69271469D01*
X134140727Y-69165000D01*
X133779273Y-69165000D01*
X133244019Y-69271469D01*
X132637039Y-69677039D01*
X132231469Y-70284019D01*
X132089051Y-71000000D01*
X74835000Y-71000000D01*
X74835000Y-70634996D01*
X74555638Y-69960556D01*
X74039444Y-69444362D01*
X73365004Y-69165000D01*
X72634996Y-69165000D01*
X71960556Y-69444362D01*
X71444362Y-69960556D01*
X71165000Y-70634996D01*
X63614927Y-70634996D01*
X63785000Y-70224406D01*
X63785000Y-69275594D01*
X63421905Y-68399006D01*
X62750994Y-67728095D01*
X61874406Y-67365000D01*
X60925594Y-67365000D01*
X60049006Y-67728095D01*
X59378095Y-68399006D01*
X59015000Y-69275594D01*
X51079043Y-69275594D01*
X51078641Y-69244677D01*
X50739271Y-68425364D01*
X50394528Y-68235077D01*
X48879605Y-69750000D01*
X48520395Y-69750000D01*
X47005472Y-68235077D01*
X46660729Y-68425364D01*
X46309044Y-69306591D01*
X43711200Y-69306591D01*
X43711200Y-68055472D01*
X47185077Y-68055472D01*
X48700000Y-69570395D01*
X50214923Y-68055472D01*
X50024636Y-67710729D01*
X49143409Y-67359044D01*
X48194677Y-67371359D01*
X47375364Y-67710729D01*
X47185077Y-68055472D01*
X43711200Y-68055472D01*
X43711200Y-56634996D01*
X44165000Y-56634996D01*
X44165000Y-57365004D01*
X44444362Y-58039444D01*
X44960556Y-58555638D01*
X45634996Y-58835000D01*
X46365004Y-58835000D01*
X47039444Y-58555638D01*
X47555638Y-58039444D01*
X47835000Y-57365004D01*
X47835000Y-57000000D01*
X105089051Y-57000000D01*
X105231469Y-57715981D01*
X105637039Y-58322961D01*
X106244019Y-58728531D01*
X106779273Y-58835000D01*
X107140727Y-58835000D01*
X107675981Y-58728531D01*
X108282961Y-58322961D01*
X108688531Y-57715981D01*
X108796021Y-57175594D01*
X116315000Y-57175594D01*
X116315000Y-58124406D01*
X116678095Y-59000994D01*
X117349006Y-59671905D01*
X118225594Y-60035000D01*
X119174406Y-60035000D01*
X120050994Y-59671905D01*
X120378371Y-59344528D01*
X129885077Y-59344528D01*
X130075364Y-59689271D01*
X130956591Y-60040956D01*
X131905323Y-60028641D01*
X132724636Y-59689271D01*
X132914923Y-59344528D01*
X131400000Y-57829605D01*
X129885077Y-59344528D01*
X120378371Y-59344528D01*
X120721905Y-59000994D01*
X121085000Y-58124406D01*
X121085000Y-57206591D01*
X129009044Y-57206591D01*
X129021359Y-58155323D01*
X129360729Y-58974636D01*
X129705472Y-59164923D01*
X131220395Y-57650000D01*
X131579605Y-57650000D01*
X133094528Y-59164923D01*
X133439271Y-58974636D01*
X133790956Y-58093409D01*
X133778641Y-57144677D01*
X133439271Y-56325364D01*
X133094528Y-56135077D01*
X131579605Y-57650000D01*
X131220395Y-57650000D01*
X129705472Y-56135077D01*
X129360729Y-56325364D01*
X129009044Y-57206591D01*
X121085000Y-57206591D01*
X121085000Y-57175594D01*
X120721905Y-56299006D01*
X120378371Y-55955472D01*
X129885077Y-55955472D01*
X131400000Y-57470395D01*
X132914923Y-55955472D01*
X132724636Y-55610729D01*
X131843409Y-55259044D01*
X130894677Y-55271359D01*
X130075364Y-55610729D01*
X129885077Y-55955472D01*
X120378371Y-55955472D01*
X120050994Y-55628095D01*
X119174406Y-55265000D01*
X118225594Y-55265000D01*
X117349006Y-55628095D01*
X116678095Y-56299006D01*
X116315000Y-57175594D01*
X108796021Y-57175594D01*
X108830949Y-57000000D01*
X108688531Y-56284019D01*
X108282961Y-55677039D01*
X107675981Y-55271469D01*
X107140727Y-55165000D01*
X106779273Y-55165000D01*
X106244019Y-55271469D01*
X105637039Y-55677039D01*
X105231469Y-56284019D01*
X105089051Y-57000000D01*
X47835000Y-57000000D01*
X47835000Y-56634996D01*
X47555638Y-55960556D01*
X47039444Y-55444362D01*
X46365004Y-55165000D01*
X45634996Y-55165000D01*
X44960556Y-55444362D01*
X44444362Y-55960556D01*
X44165000Y-56634996D01*
X43711200Y-56634996D01*
X43711200Y-39934996D01*
X44065000Y-39934996D01*
X44065000Y-40665004D01*
X44344362Y-41339444D01*
X44860556Y-41855638D01*
X45534996Y-42135000D01*
X46265004Y-42135000D01*
X46939444Y-41855638D01*
X47455638Y-41339444D01*
X47735000Y-40665004D01*
X47735000Y-40300000D01*
X104989051Y-40300000D01*
X105131469Y-41015981D01*
X105537039Y-41622961D01*
X106144019Y-42028531D01*
X106679273Y-42135000D01*
X107040727Y-42135000D01*
X107575981Y-42028531D01*
X108182961Y-41622961D01*
X108588531Y-41015981D01*
X108656238Y-40675594D01*
X116315000Y-40675594D01*
X116315000Y-41624406D01*
X116678095Y-42500994D01*
X117349006Y-43171905D01*
X118225594Y-43535000D01*
X119174406Y-43535000D01*
X120050994Y-43171905D01*
X120378371Y-42844528D01*
X129885077Y-42844528D01*
X130075364Y-43189271D01*
X130956591Y-43540956D01*
X131905323Y-43528641D01*
X132724636Y-43189271D01*
X132914923Y-42844528D01*
X131400000Y-41329605D01*
X129885077Y-42844528D01*
X120378371Y-42844528D01*
X120721905Y-42500994D01*
X121085000Y-41624406D01*
X121085000Y-40706591D01*
X129009044Y-40706591D01*
X129021359Y-41655323D01*
X129360729Y-42474636D01*
X129705472Y-42664923D01*
X131220395Y-41150000D01*
X131579605Y-41150000D01*
X133094528Y-42664923D01*
X133439271Y-42474636D01*
X133790956Y-41593409D01*
X133778641Y-40644677D01*
X133439271Y-39825364D01*
X133094528Y-39635077D01*
X131579605Y-41150000D01*
X131220395Y-41150000D01*
X129705472Y-39635077D01*
X129360729Y-39825364D01*
X129009044Y-40706591D01*
X121085000Y-40706591D01*
X121085000Y-40675594D01*
X120721905Y-39799006D01*
X120378371Y-39455472D01*
X129885077Y-39455472D01*
X131400000Y-40970395D01*
X132914923Y-39455472D01*
X132724636Y-39110729D01*
X131843409Y-38759044D01*
X130894677Y-38771359D01*
X130075364Y-39110729D01*
X129885077Y-39455472D01*
X120378371Y-39455472D01*
X120050994Y-39128095D01*
X119174406Y-38765000D01*
X118225594Y-38765000D01*
X117349006Y-39128095D01*
X116678095Y-39799006D01*
X116315000Y-40675594D01*
X108656238Y-40675594D01*
X108730949Y-40300000D01*
X108588531Y-39584019D01*
X108182961Y-38977039D01*
X107575981Y-38571469D01*
X107040727Y-38465000D01*
X106679273Y-38465000D01*
X106144019Y-38571469D01*
X105537039Y-38977039D01*
X105131469Y-39584019D01*
X104989051Y-40300000D01*
X47735000Y-40300000D01*
X47735000Y-39934996D01*
X47455638Y-39260556D01*
X46939444Y-38744362D01*
X46265004Y-38465000D01*
X45534996Y-38465000D01*
X44860556Y-38744362D01*
X44344362Y-39260556D01*
X44065000Y-39934996D01*
X43711200Y-39934996D01*
X43711200Y-24555431D01*
X47765000Y-24555431D01*
X47765000Y-25444569D01*
X48105259Y-26266026D01*
X48733974Y-26894741D01*
X49555431Y-27235000D01*
X50444569Y-27235000D01*
X51266026Y-26894741D01*
X51894741Y-26266026D01*
X52235000Y-25444569D01*
X52235000Y-24634996D01*
X57165000Y-24634996D01*
X57165000Y-25365004D01*
X57444362Y-26039444D01*
X57960556Y-26555638D01*
X58634996Y-26835000D01*
X59365004Y-26835000D01*
X60039444Y-26555638D01*
X60555638Y-26039444D01*
X60815614Y-25411805D01*
X118171805Y-25411805D01*
X118404358Y-25973258D01*
X118895224Y-26494492D01*
X119548193Y-26788203D01*
X119833000Y-26671858D01*
X119833000Y-25127000D01*
X120087000Y-25127000D01*
X120087000Y-26671858D01*
X120371807Y-26788203D01*
X121024776Y-26494492D01*
X121515642Y-25973258D01*
X121748195Y-25411805D01*
X121631432Y-25127000D01*
X120087000Y-25127000D01*
X119833000Y-25127000D01*
X118288568Y-25127000D01*
X118171805Y-25411805D01*
X60815614Y-25411805D01*
X60835000Y-25365004D01*
X60835000Y-24634996D01*
X60815615Y-24588195D01*
X118171805Y-24588195D01*
X118288568Y-24873000D01*
X119833000Y-24873000D01*
X119833000Y-23328142D01*
X120087000Y-23328142D01*
X120087000Y-24873000D01*
X121631432Y-24873000D01*
X121748195Y-24588195D01*
X121734625Y-24555431D01*
X128765000Y-24555431D01*
X128765000Y-25444569D01*
X129105259Y-26266026D01*
X129733974Y-26894741D01*
X130555431Y-27235000D01*
X131444569Y-27235000D01*
X132266026Y-26894741D01*
X132894741Y-26266026D01*
X133235000Y-25444569D01*
X133235000Y-24555431D01*
X132894741Y-23733974D01*
X132266026Y-23105259D01*
X131444569Y-22765000D01*
X130555431Y-22765000D01*
X129733974Y-23105259D01*
X129105259Y-23733974D01*
X128765000Y-24555431D01*
X121734625Y-24555431D01*
X121515642Y-24026742D01*
X121024776Y-23505508D01*
X120371807Y-23211797D01*
X120087000Y-23328142D01*
X119833000Y-23328142D01*
X119548193Y-23211797D01*
X118895224Y-23505508D01*
X118404358Y-24026742D01*
X118171805Y-24588195D01*
X60815615Y-24588195D01*
X60555638Y-23960556D01*
X60039444Y-23444362D01*
X59365004Y-23165000D01*
X58634996Y-23165000D01*
X57960556Y-23444362D01*
X57444362Y-23960556D01*
X57165000Y-24634996D01*
X52235000Y-24634996D01*
X52235000Y-24555431D01*
X51894741Y-23733974D01*
X51266026Y-23105259D01*
X50444569Y-22765000D01*
X49555431Y-22765000D01*
X48733974Y-23105259D01*
X48105259Y-23733974D01*
X47765000Y-24555431D01*
X43711200Y-24555431D01*
X43711200Y-15711200D01*
X138288800Y-15711200D01*
X138288801Y-110288800D01*
X138288801Y-110288800D01*
G37*
X138288801Y-110288800D02*
X43711200Y-110288800D01*
X43711200Y-100555431D01*
X47765000Y-100555431D01*
X47765000Y-101444569D01*
X48105259Y-102266026D01*
X48733974Y-102894741D01*
X49555431Y-103235000D01*
X50444569Y-103235000D01*
X51266026Y-102894741D01*
X51894741Y-102266026D01*
X52235000Y-101444569D01*
X52235000Y-101134996D01*
X56565000Y-101134996D01*
X56565000Y-101865004D01*
X56844362Y-102539444D01*
X57360556Y-103055638D01*
X58034996Y-103335000D01*
X58765004Y-103335000D01*
X59439444Y-103055638D01*
X59955638Y-102539444D01*
X60215614Y-101911805D01*
X117571805Y-101911805D01*
X117804358Y-102473258D01*
X118295224Y-102994492D01*
X118948193Y-103288203D01*
X119233000Y-103171858D01*
X119233000Y-101627000D01*
X119487000Y-101627000D01*
X119487000Y-103171858D01*
X119771807Y-103288203D01*
X120424776Y-102994492D01*
X120915642Y-102473258D01*
X121148195Y-101911805D01*
X121031432Y-101627000D01*
X119487000Y-101627000D01*
X119233000Y-101627000D01*
X117688568Y-101627000D01*
X117571805Y-101911805D01*
X60215614Y-101911805D01*
X60235000Y-101865004D01*
X60235000Y-101134996D01*
X60215615Y-101088195D01*
X117571805Y-101088195D01*
X117688568Y-101373000D01*
X119233000Y-101373000D01*
X119233000Y-99828142D01*
X119487000Y-99828142D01*
X119487000Y-101373000D01*
X121031432Y-101373000D01*
X121148195Y-101088195D01*
X120927525Y-100555431D01*
X127765000Y-100555431D01*
X127765000Y-101444569D01*
X128105259Y-102266026D01*
X128733974Y-102894741D01*
X129555431Y-103235000D01*
X130444569Y-103235000D01*
X131266026Y-102894741D01*
X131894741Y-102266026D01*
X132235000Y-101444569D01*
X132235000Y-100555431D01*
X131894741Y-99733974D01*
X131266026Y-99105259D01*
X130444569Y-98765000D01*
X129555431Y-98765000D01*
X128733974Y-99105259D01*
X128105259Y-99733974D01*
X127765000Y-100555431D01*
X120927525Y-100555431D01*
X120915642Y-100526742D01*
X120424776Y-100005508D01*
X119771807Y-99711797D01*
X119487000Y-99828142D01*
X119233000Y-99828142D01*
X118948193Y-99711797D01*
X118295224Y-100005508D01*
X117804358Y-100526742D01*
X117571805Y-101088195D01*
X60215615Y-101088195D01*
X59955638Y-100460556D01*
X59439444Y-99944362D01*
X58765004Y-99665000D01*
X58034996Y-99665000D01*
X57360556Y-99944362D01*
X56844362Y-100460556D01*
X56565000Y-101134996D01*
X52235000Y-101134996D01*
X52235000Y-100555431D01*
X51894741Y-99733974D01*
X51266026Y-99105259D01*
X50444569Y-98765000D01*
X49555431Y-98765000D01*
X48733974Y-99105259D01*
X48105259Y-99733974D01*
X47765000Y-100555431D01*
X43711200Y-100555431D01*
X43711200Y-87944528D01*
X47185077Y-87944528D01*
X47375364Y-88289271D01*
X48256591Y-88640956D01*
X49205323Y-88628641D01*
X50024636Y-88289271D01*
X50214923Y-87944528D01*
X48700000Y-86429605D01*
X47185077Y-87944528D01*
X43711200Y-87944528D01*
X43711200Y-85806591D01*
X46309044Y-85806591D01*
X46321359Y-86755323D01*
X46660729Y-87574636D01*
X47005472Y-87764923D01*
X48520395Y-86250000D01*
X48879605Y-86250000D01*
X50394528Y-87764923D01*
X50739271Y-87574636D01*
X51090956Y-86693409D01*
X51079043Y-85775594D01*
X59015000Y-85775594D01*
X59015000Y-86724406D01*
X59378095Y-87600994D01*
X60049006Y-88271905D01*
X60925594Y-88635000D01*
X61874406Y-88635000D01*
X62750994Y-88271905D01*
X63421905Y-87600994D01*
X63785000Y-86724406D01*
X63785000Y-86034996D01*
X71165000Y-86034996D01*
X71165000Y-86765004D01*
X71444362Y-87439444D01*
X71960556Y-87955638D01*
X72634996Y-88235000D01*
X73365004Y-88235000D01*
X74039444Y-87955638D01*
X74555638Y-87439444D01*
X74835000Y-86765004D01*
X74835000Y-86400000D01*
X132089051Y-86400000D01*
X132231469Y-87115981D01*
X132637039Y-87722961D01*
X133244019Y-88128531D01*
X133779273Y-88235000D01*
X134140727Y-88235000D01*
X134675981Y-88128531D01*
X135282961Y-87722961D01*
X135688531Y-87115981D01*
X135830949Y-86400000D01*
X135688531Y-85684019D01*
X135282961Y-85077039D01*
X134675981Y-84671469D01*
X134140727Y-84565000D01*
X133779273Y-84565000D01*
X133244019Y-84671469D01*
X132637039Y-85077039D01*
X132231469Y-85684019D01*
X132089051Y-86400000D01*
X74835000Y-86400000D01*
X74835000Y-86034996D01*
X74555638Y-85360556D01*
X74039444Y-84844362D01*
X73365004Y-84565000D01*
X72634996Y-84565000D01*
X71960556Y-84844362D01*
X71444362Y-85360556D01*
X71165000Y-86034996D01*
X63785000Y-86034996D01*
X63785000Y-85775594D01*
X63421905Y-84899006D01*
X62750994Y-84228095D01*
X61874406Y-83865000D01*
X60925594Y-83865000D01*
X60049006Y-84228095D01*
X59378095Y-84899006D01*
X59015000Y-85775594D01*
X51079043Y-85775594D01*
X51078641Y-85744677D01*
X50739271Y-84925364D01*
X50394528Y-84735077D01*
X48879605Y-86250000D01*
X48520395Y-86250000D01*
X47005472Y-84735077D01*
X46660729Y-84925364D01*
X46309044Y-85806591D01*
X43711200Y-85806591D01*
X43711200Y-84555472D01*
X47185077Y-84555472D01*
X48700000Y-86070395D01*
X50214923Y-84555472D01*
X50024636Y-84210729D01*
X49143409Y-83859044D01*
X48194677Y-83871359D01*
X47375364Y-84210729D01*
X47185077Y-84555472D01*
X43711200Y-84555472D01*
X43711200Y-71444528D01*
X47185077Y-71444528D01*
X47375364Y-71789271D01*
X48256591Y-72140956D01*
X49205323Y-72128641D01*
X50024636Y-71789271D01*
X50214923Y-71444528D01*
X48700000Y-69929605D01*
X47185077Y-71444528D01*
X43711200Y-71444528D01*
X43711200Y-69306591D01*
X46309044Y-69306591D01*
X46321359Y-70255323D01*
X46660729Y-71074636D01*
X47005472Y-71264923D01*
X48520395Y-69750000D01*
X48879605Y-69750000D01*
X50394528Y-71264923D01*
X50739271Y-71074636D01*
X51090956Y-70193409D01*
X51079043Y-69275594D01*
X59015000Y-69275594D01*
X59015000Y-70224406D01*
X59378095Y-71100994D01*
X60049006Y-71771905D01*
X60925594Y-72135000D01*
X61874406Y-72135000D01*
X62750994Y-71771905D01*
X63421905Y-71100994D01*
X63614927Y-70634996D01*
X71165000Y-70634996D01*
X71165000Y-71365004D01*
X71444362Y-72039444D01*
X71960556Y-72555638D01*
X72634996Y-72835000D01*
X73365004Y-72835000D01*
X74039444Y-72555638D01*
X74555638Y-72039444D01*
X74835000Y-71365004D01*
X74835000Y-71000000D01*
X132089051Y-71000000D01*
X132231469Y-71715981D01*
X132637039Y-72322961D01*
X133244019Y-72728531D01*
X133779273Y-72835000D01*
X134140727Y-72835000D01*
X134675981Y-72728531D01*
X135282961Y-72322961D01*
X135688531Y-71715981D01*
X135830949Y-71000000D01*
X135688531Y-70284019D01*
X135282961Y-69677039D01*
X134675981Y-69271469D01*
X134140727Y-69165000D01*
X133779273Y-69165000D01*
X133244019Y-69271469D01*
X132637039Y-69677039D01*
X132231469Y-70284019D01*
X132089051Y-71000000D01*
X74835000Y-71000000D01*
X74835000Y-70634996D01*
X74555638Y-69960556D01*
X74039444Y-69444362D01*
X73365004Y-69165000D01*
X72634996Y-69165000D01*
X71960556Y-69444362D01*
X71444362Y-69960556D01*
X71165000Y-70634996D01*
X63614927Y-70634996D01*
X63785000Y-70224406D01*
X63785000Y-69275594D01*
X63421905Y-68399006D01*
X62750994Y-67728095D01*
X61874406Y-67365000D01*
X60925594Y-67365000D01*
X60049006Y-67728095D01*
X59378095Y-68399006D01*
X59015000Y-69275594D01*
X51079043Y-69275594D01*
X51078641Y-69244677D01*
X50739271Y-68425364D01*
X50394528Y-68235077D01*
X48879605Y-69750000D01*
X48520395Y-69750000D01*
X47005472Y-68235077D01*
X46660729Y-68425364D01*
X46309044Y-69306591D01*
X43711200Y-69306591D01*
X43711200Y-68055472D01*
X47185077Y-68055472D01*
X48700000Y-69570395D01*
X50214923Y-68055472D01*
X50024636Y-67710729D01*
X49143409Y-67359044D01*
X48194677Y-67371359D01*
X47375364Y-67710729D01*
X47185077Y-68055472D01*
X43711200Y-68055472D01*
X43711200Y-56634996D01*
X44165000Y-56634996D01*
X44165000Y-57365004D01*
X44444362Y-58039444D01*
X44960556Y-58555638D01*
X45634996Y-58835000D01*
X46365004Y-58835000D01*
X47039444Y-58555638D01*
X47555638Y-58039444D01*
X47835000Y-57365004D01*
X47835000Y-57000000D01*
X105089051Y-57000000D01*
X105231469Y-57715981D01*
X105637039Y-58322961D01*
X106244019Y-58728531D01*
X106779273Y-58835000D01*
X107140727Y-58835000D01*
X107675981Y-58728531D01*
X108282961Y-58322961D01*
X108688531Y-57715981D01*
X108796021Y-57175594D01*
X116315000Y-57175594D01*
X116315000Y-58124406D01*
X116678095Y-59000994D01*
X117349006Y-59671905D01*
X118225594Y-60035000D01*
X119174406Y-60035000D01*
X120050994Y-59671905D01*
X120378371Y-59344528D01*
X129885077Y-59344528D01*
X130075364Y-59689271D01*
X130956591Y-60040956D01*
X131905323Y-60028641D01*
X132724636Y-59689271D01*
X132914923Y-59344528D01*
X131400000Y-57829605D01*
X129885077Y-59344528D01*
X120378371Y-59344528D01*
X120721905Y-59000994D01*
X121085000Y-58124406D01*
X121085000Y-57206591D01*
X129009044Y-57206591D01*
X129021359Y-58155323D01*
X129360729Y-58974636D01*
X129705472Y-59164923D01*
X131220395Y-57650000D01*
X131579605Y-57650000D01*
X133094528Y-59164923D01*
X133439271Y-58974636D01*
X133790956Y-58093409D01*
X133778641Y-57144677D01*
X133439271Y-56325364D01*
X133094528Y-56135077D01*
X131579605Y-57650000D01*
X131220395Y-57650000D01*
X129705472Y-56135077D01*
X129360729Y-56325364D01*
X129009044Y-57206591D01*
X121085000Y-57206591D01*
X121085000Y-57175594D01*
X120721905Y-56299006D01*
X120378371Y-55955472D01*
X129885077Y-55955472D01*
X131400000Y-57470395D01*
X132914923Y-55955472D01*
X132724636Y-55610729D01*
X131843409Y-55259044D01*
X130894677Y-55271359D01*
X130075364Y-55610729D01*
X129885077Y-55955472D01*
X120378371Y-55955472D01*
X120050994Y-55628095D01*
X119174406Y-55265000D01*
X118225594Y-55265000D01*
X117349006Y-55628095D01*
X116678095Y-56299006D01*
X116315000Y-57175594D01*
X108796021Y-57175594D01*
X108830949Y-57000000D01*
X108688531Y-56284019D01*
X108282961Y-55677039D01*
X107675981Y-55271469D01*
X107140727Y-55165000D01*
X106779273Y-55165000D01*
X106244019Y-55271469D01*
X105637039Y-55677039D01*
X105231469Y-56284019D01*
X105089051Y-57000000D01*
X47835000Y-57000000D01*
X47835000Y-56634996D01*
X47555638Y-55960556D01*
X47039444Y-55444362D01*
X46365004Y-55165000D01*
X45634996Y-55165000D01*
X44960556Y-55444362D01*
X44444362Y-55960556D01*
X44165000Y-56634996D01*
X43711200Y-56634996D01*
X43711200Y-39934996D01*
X44065000Y-39934996D01*
X44065000Y-40665004D01*
X44344362Y-41339444D01*
X44860556Y-41855638D01*
X45534996Y-42135000D01*
X46265004Y-42135000D01*
X46939444Y-41855638D01*
X47455638Y-41339444D01*
X47735000Y-40665004D01*
X47735000Y-40300000D01*
X104989051Y-40300000D01*
X105131469Y-41015981D01*
X105537039Y-41622961D01*
X106144019Y-42028531D01*
X106679273Y-42135000D01*
X107040727Y-42135000D01*
X107575981Y-42028531D01*
X108182961Y-41622961D01*
X108588531Y-41015981D01*
X108656238Y-40675594D01*
X116315000Y-40675594D01*
X116315000Y-41624406D01*
X116678095Y-42500994D01*
X117349006Y-43171905D01*
X118225594Y-43535000D01*
X119174406Y-43535000D01*
X120050994Y-43171905D01*
X120378371Y-42844528D01*
X129885077Y-42844528D01*
X130075364Y-43189271D01*
X130956591Y-43540956D01*
X131905323Y-43528641D01*
X132724636Y-43189271D01*
X132914923Y-42844528D01*
X131400000Y-41329605D01*
X129885077Y-42844528D01*
X120378371Y-42844528D01*
X120721905Y-42500994D01*
X121085000Y-41624406D01*
X121085000Y-40706591D01*
X129009044Y-40706591D01*
X129021359Y-41655323D01*
X129360729Y-42474636D01*
X129705472Y-42664923D01*
X131220395Y-41150000D01*
X131579605Y-41150000D01*
X133094528Y-42664923D01*
X133439271Y-42474636D01*
X133790956Y-41593409D01*
X133778641Y-40644677D01*
X133439271Y-39825364D01*
X133094528Y-39635077D01*
X131579605Y-41150000D01*
X131220395Y-41150000D01*
X129705472Y-39635077D01*
X129360729Y-39825364D01*
X129009044Y-40706591D01*
X121085000Y-40706591D01*
X121085000Y-40675594D01*
X120721905Y-39799006D01*
X120378371Y-39455472D01*
X129885077Y-39455472D01*
X131400000Y-40970395D01*
X132914923Y-39455472D01*
X132724636Y-39110729D01*
X131843409Y-38759044D01*
X130894677Y-38771359D01*
X130075364Y-39110729D01*
X129885077Y-39455472D01*
X120378371Y-39455472D01*
X120050994Y-39128095D01*
X119174406Y-38765000D01*
X118225594Y-38765000D01*
X117349006Y-39128095D01*
X116678095Y-39799006D01*
X116315000Y-40675594D01*
X108656238Y-40675594D01*
X108730949Y-40300000D01*
X108588531Y-39584019D01*
X108182961Y-38977039D01*
X107575981Y-38571469D01*
X107040727Y-38465000D01*
X106679273Y-38465000D01*
X106144019Y-38571469D01*
X105537039Y-38977039D01*
X105131469Y-39584019D01*
X104989051Y-40300000D01*
X47735000Y-40300000D01*
X47735000Y-39934996D01*
X47455638Y-39260556D01*
X46939444Y-38744362D01*
X46265004Y-38465000D01*
X45534996Y-38465000D01*
X44860556Y-38744362D01*
X44344362Y-39260556D01*
X44065000Y-39934996D01*
X43711200Y-39934996D01*
X43711200Y-24555431D01*
X47765000Y-24555431D01*
X47765000Y-25444569D01*
X48105259Y-26266026D01*
X48733974Y-26894741D01*
X49555431Y-27235000D01*
X50444569Y-27235000D01*
X51266026Y-26894741D01*
X51894741Y-26266026D01*
X52235000Y-25444569D01*
X52235000Y-24634996D01*
X57165000Y-24634996D01*
X57165000Y-25365004D01*
X57444362Y-26039444D01*
X57960556Y-26555638D01*
X58634996Y-26835000D01*
X59365004Y-26835000D01*
X60039444Y-26555638D01*
X60555638Y-26039444D01*
X60815614Y-25411805D01*
X118171805Y-25411805D01*
X118404358Y-25973258D01*
X118895224Y-26494492D01*
X119548193Y-26788203D01*
X119833000Y-26671858D01*
X119833000Y-25127000D01*
X120087000Y-25127000D01*
X120087000Y-26671858D01*
X120371807Y-26788203D01*
X121024776Y-26494492D01*
X121515642Y-25973258D01*
X121748195Y-25411805D01*
X121631432Y-25127000D01*
X120087000Y-25127000D01*
X119833000Y-25127000D01*
X118288568Y-25127000D01*
X118171805Y-25411805D01*
X60815614Y-25411805D01*
X60835000Y-25365004D01*
X60835000Y-24634996D01*
X60815615Y-24588195D01*
X118171805Y-24588195D01*
X118288568Y-24873000D01*
X119833000Y-24873000D01*
X119833000Y-23328142D01*
X120087000Y-23328142D01*
X120087000Y-24873000D01*
X121631432Y-24873000D01*
X121748195Y-24588195D01*
X121734625Y-24555431D01*
X128765000Y-24555431D01*
X128765000Y-25444569D01*
X129105259Y-26266026D01*
X129733974Y-26894741D01*
X130555431Y-27235000D01*
X131444569Y-27235000D01*
X132266026Y-26894741D01*
X132894741Y-26266026D01*
X133235000Y-25444569D01*
X133235000Y-24555431D01*
X132894741Y-23733974D01*
X132266026Y-23105259D01*
X131444569Y-22765000D01*
X130555431Y-22765000D01*
X129733974Y-23105259D01*
X129105259Y-23733974D01*
X128765000Y-24555431D01*
X121734625Y-24555431D01*
X121515642Y-24026742D01*
X121024776Y-23505508D01*
X120371807Y-23211797D01*
X120087000Y-23328142D01*
X119833000Y-23328142D01*
X119548193Y-23211797D01*
X118895224Y-23505508D01*
X118404358Y-24026742D01*
X118171805Y-24588195D01*
X60815615Y-24588195D01*
X60555638Y-23960556D01*
X60039444Y-23444362D01*
X59365004Y-23165000D01*
X58634996Y-23165000D01*
X57960556Y-23444362D01*
X57444362Y-23960556D01*
X57165000Y-24634996D01*
X52235000Y-24634996D01*
X52235000Y-24555431D01*
X51894741Y-23733974D01*
X51266026Y-23105259D01*
X50444569Y-22765000D01*
X49555431Y-22765000D01*
X48733974Y-23105259D01*
X48105259Y-23733974D01*
X47765000Y-24555431D01*
X43711200Y-24555431D01*
X43711200Y-15711200D01*
X138288800Y-15711200D01*
X138288801Y-110288800D01*
G04 #@! TD*
M02*
